<?xml version="1.0" encoding="UTF-8" standalone="no"?>
<svg width="587px" height="135px" viewBox="0 0 587 135" version="1.1" xmlns="http://www.w3.org/2000/svg" xmlns:xlink="http://www.w3.org/1999/xlink">
    <!-- Generator: Sketch 3.8.3 (29802) - http://www.bohemiancoding.com/sketch -->
    <title>Group 21</title>
    <desc>Created with Sketch.</desc>
    <defs>
        <path d="M238.668814,0.821740753 C236.670493,0.821740753 234.93656,1.48025264 233.46608,2.79727641 C231.994666,4.11430018 231.259426,5.92194329 231.259426,8.219273 C231.259426,10.5166027 231.994666,12.3233131 233.46608,13.6412696 C234.93656,14.9582934 236.670493,15.6158725 238.668814,15.6158725 C240.667134,15.6158725 242.401067,14.9582934 243.871547,13.6412696 C245.342961,12.3233131 246.078201,10.5166027 246.078201,8.219273 C246.078201,5.92194329 245.342961,4.11430018 243.871547,2.79727641 C242.401067,1.48025264 240.667134,0.821740753 238.668814,0.821740753 L238.668814,0.821740753 Z M232.082484,68.4936307 L245.254209,68.4936307 L245.254209,22.4658885 L232.082484,22.4658885 L232.082484,68.4936307 Z M291.355714,68.4936307 L304.527439,68.4936307 L304.527439,22.4658885 L291.355714,22.4658885 L291.355714,68.4936307 Z M213.971479,47.259887 C213.971479,53.3888978 208.997632,58.3566517 202.857865,58.3566517 C196.719966,58.3566517 191.744251,53.3823686 191.744251,47.2561561 L191.744251,43.9738567 C191.744251,37.844846 196.719032,32.877092 202.857865,32.877092 C208.995764,32.877092 213.971479,37.8373841 213.971479,43.9785204 L213.971479,47.259887 Z M204.915976,21.3699232 C199.90476,21.3699232 195.037416,23.3351988 191.744251,26.6025744 L191.744251,0 L178.572526,0.821740753 L178.572526,68.492698 L191.744251,68.492698 L191.744251,64.6283712 C195.037416,67.8957467 199.905695,69.8628878 204.915976,69.8628878 C216.284635,69.8628878 225.497089,59.746429 225.497089,47.2664162 L225.497089,43.9663948 C225.497089,31.4910457 216.282767,21.3699232 204.915976,21.3699232 L204.915976,21.3699232 Z M278.387651,58.4835039 C276.883539,58.7465356 275.42427,58.8780514 274.00891,58.8780514 C271.060476,58.8780514 269.095788,58.0600416 268.122319,56.4221565 C267.149784,54.7842714 266.659313,52.5904754 266.659313,49.842634 L266.659313,33.9730572 L283.123269,33.9730572 L283.123269,22.4658885 L266.659313,22.4658885 L266.659313,9.04101375 L253.486654,9.96069182 L253.486654,50.0170558 C253.486654,52.9999467 253.766923,55.7207387 254.327462,58.1766336 C254.887066,60.6334613 255.875483,62.7246562 257.290843,64.4502185 C258.705269,66.1757808 260.59335,67.5207867 262.95135,68.4861689 C265.310283,69.4506183 268.288612,69.9337757 271.885402,69.9337757 C274.717057,69.9337757 277.104952,69.6987261 279.050955,69.2314252 C280.996959,68.7641243 283.406341,68.0869577 284.998271,67.4433696 L282.300211,57.4201844 C281.062355,57.8884181 279.891763,58.221405 278.387651,58.4835039 L278.387651,58.4835039 Z M22.9800649,31.5069022 C28.4359748,31.5069022 32.8586251,35.6165387 32.8586251,41.3696568 L13.1015047,41.3696568 C13.1015047,35.6165387 17.5232207,31.5069022 22.9800649,31.5069022 L22.9800649,31.5069022 Z M45.2082266,49.5889298 L45.2082266,44.383328 C45.2082266,30.3950805 36.6394585,21.3699232 22.9800649,21.3699232 C9.49163548,21.3699232 0.752837287,30.9071528 0.752837287,46.0277422 C0.752837287,60.7099456 9.44866085,70 23.8031225,70 C35.0279098,70 43.467754,63.5613208 45.2082266,55.3420478 L32.8586251,55.3420478 C31.6525326,56.986462 28.5602275,60.188546 23.8031225,60.188546 C17.5699323,60.188546 13.1015047,55.6871602 13.1015047,50.1373787 L13.1015047,49.5889298 L45.2082266,49.5889298 Z M155.521307,21.3699232 C150.659568,21.508901 145.543718,24.6792719 142.349582,29.5891962 C141.61621,28.4587198 141.313519,27.9904861 140.703467,27.1230413 C139.270356,25.0878105 134.639372,21.1899051 128.354799,21.3699232 C124.573031,21.4715915 120.945412,23.3398625 117.652247,26.3013005 L117.652247,22.4649558 L104.480522,22.4649558 L104.480522,68.492698 L117.652247,68.492698 L117.652247,40.2736915 C117.652247,36.7199659 120.791264,33.7128238 125.061634,33.6988327 C128.516421,33.6867072 131.647964,36.7236968 131.647964,40.2736915 L131.647964,68.492698 L144.819689,68.492698 L144.819689,40.2736915 C144.819689,36.7199659 147.958706,33.7128238 152.229076,33.6988327 C155.683863,33.6867072 158.814472,36.7236968 158.814472,40.2736915 L158.814472,68.492698 L171.986197,68.492698 L171.986197,42.7398465 C171.986197,39.2579416 171.802153,36.319822 171.163139,33.6988327 C170.511046,31.0274757 169.256373,29.0659311 167.869974,27.1230413 C166.483575,25.1801514 161.80588,21.1899051 155.521307,21.3699232 L155.521307,21.3699232 Z M297.942043,0.821740753 C295.943723,0.821740753 294.20979,1.48025264 292.73931,2.79727641 C291.267896,4.11430018 290.532656,5.92194329 290.532656,8.219273 C290.532656,10.5166027 291.267896,12.3233131 292.73931,13.6412696 C294.20979,14.9582934 295.943723,15.6158725 297.942043,15.6158725 C299.940364,15.6158725 301.674297,14.9582934 303.144777,13.6412696 C304.616191,12.3233131 305.351431,10.5166027 305.351431,8.219273 C305.351431,5.92194329 304.616191,4.11430018 303.144777,2.79727641 C301.674297,1.48025264 299.940364,0.821740753 297.942043,0.821740753 L297.942043,0.821740753 Z M344.866606,47.259887 C344.866606,53.3888978 339.789059,58.3566517 333.650226,58.3566517 C327.512328,58.3566517 322.639378,53.3823686 322.639378,47.2561561 L322.639378,43.9738567 C322.639378,37.844846 327.510459,32.877092 333.650226,32.877092 C339.788125,32.877092 344.866606,37.8373841 344.866606,43.9785204 L344.866606,47.259887 Z M333.752992,21.3699232 C321.247374,21.3699232 311.113768,31.486382 311.113768,43.9663948 L311.113768,47.2664162 C311.113768,59.7408325 321.249242,69.8628878 333.752992,69.8628878 C346.25861,69.8628878 356.392215,59.746429 356.392215,47.2664162 L356.392215,43.9663948 C356.392215,31.4910457 346.255807,21.3699232 333.752992,21.3699232 L333.752992,21.3699232 Z M83.8994098,47.2561561 C83.8994098,53.3833014 78.9246289,58.3566517 72.7867303,58.3566517 C66.6469631,58.3566517 61.6721822,53.3888978 61.6721822,47.2608197 L61.6721822,43.9785204 C61.6721822,37.8383168 66.6488316,32.877092 72.7867303,32.877092 C78.9255632,32.877092 83.8994098,37.8457787 83.8994098,43.9747895 L83.8994098,47.2561561 Z M83.8994098,22.4658885 L83.8994098,26.6016416 C80.6071792,23.3351988 75.7389007,21.3699232 70.7276848,21.3699232 C59.3618286,21.3699232 50.1465725,31.4910457 50.1465725,43.9663948 L50.1465725,47.2673489 C50.1465725,59.746429 59.3590259,69.8628878 70.7276848,69.8628878 C75.7379665,69.8628878 80.6071792,67.8966795 83.8994098,64.6283712 L83.8994098,68.492698 L97.0711348,68.492698 L97.0711348,22.4658885 L83.8994098,22.4658885 Z" id="path-1"></path>
    </defs>
    <g id="Page-1" stroke="none" stroke-width="1" fill="none" fill-rule="evenodd">
        <g id="0805doodle-copy-3" transform="translate(-12.000000, -102.000000)">
            <g id="Group-21" transform="translate(-16.000000, 45.000000)">
                <g id="Group-20">
                    <g id="Group-19">
                        <g id="Group-17" transform="translate(178.000000, 97.000000)">
                            <mask id="mask-2" fill="white">
                                <use xlink:href="#path-1"></use>
                            </mask>
                            <use id="Fill-16" fill="#3DA8F5" xlink:href="#path-1"></use>
                        </g>
                        <g id="Group-10" transform="translate(117.450793, 117.379726) rotate(-45.000000) translate(-117.450793, -117.379726) translate(36.950793, 32.879726)">
                            <path d="M62.6961695,93.501595 C62.6961695,93.501595 58.0617628,92.27116 57.3364781,94.8038633 C56.6135106,97.3388838 55.5267423,89.5924729 60.3789661,89.0131721 C60.3789661,89.0131721 61.7553849,84.2327815 67.3305763,85.2453994 C72.9057676,86.2603345 80.5085119,94.1527292 86.5193374,90.5332575 C92.530163,86.9114686 98.8306389,71.4163296 108.389103,69.3146262 C108.389103,69.3146262 115.04912,61.807113 114.277492,48.4831935 C113.503546,35.1592741 107.568813,5.88118375 113.264499,6.36547926 C118.960185,6.84745756 121.856689,21.7169516 120.698087,28.0892609 C120.698087,28.0892609 124.947838,28.9582122 126.298768,20.7506778 C127.649697,12.5431435 131.222825,6.07582883 133.153055,13.7017451 C135.085603,21.3299787 132.284104,31.7573938 128.228998,35.7174944 C128.228998,35.7174944 137.982107,30.6961147 140.683966,24.7107784 C143.388143,18.7231249 148.988823,26.2540358 141.842568,33.9795919 C134.69863,41.7028307 132.478749,42.6691045 132.478749,42.6691045 C132.478749,42.6691045 140.201988,40.4469065 143.485465,37.6477248 C146.766625,34.8485432 151.306027,35.6201719 146.67162,42.958755 C142.037213,50.2950209 132.7684,59.0818561 132.7684,59.0818561 C132.7684,59.0818561 142.616514,52.8068693 146.863948,53.6758206 C151.111382,54.5447718 145.897674,62.6526665 131.125502,69.0249757 C131.125502,69.0249757 142.616514,66.612767 142.132218,69.1222983 C141.65024,71.6318295 136.33921,77.2325101 129.002944,78.7780848 C129.002944,78.7780848 136.918511,78.6089289 139.912338,78.0667033 C142.906164,77.5221605 148.022549,84.8607436 122.340984,86.4040011 C122.340984,86.4040011 132.671077,86.790974 132.960727,87.9495757 C133.250378,89.1081774 132.573755,94.9011858 117.511933,92.8736329 C117.511933,92.8736329 125.429816,94.5142129 122.72564,95.8674597 C120.023781,97.2183892 115.48438,99.4405873 118.767857,100.888839 C122.051334,102.337091 122.243661,105.397179 132.960727,105.107529 C143.677792,104.817879 142.519192,101.274363 146.863948,99.0544817 C151.208704,96.8346009 160.784982,97.9635909 151.03419,105.107529 C141.281081,112.251467 143.916479,108.804409 148.453563,110.349983 C152.992964,111.893241 155.204433,113.772499 151.03419,115.950661 C146.863948,118.128823 142.199638,115.37136 134.763728,115.950661 C134.763728,115.950661 106.892189,113.728463 99.4586011,115.950661 C99.4586011,115.950661 96.4647743,125.991104 90.5744433,126.570404 C84.6864295,127.149705 84.3967791,125.604131 86.229687,122.707626 C86.229687,122.707626 84.1071287,135.452245 77.1555186,135.065272 C70.2039084,134.680616 79.5677273,126.570404 79.7623724,125.798776 C79.9547002,125.02483 72.1341389,138.251427 67.8867051,138.348749 C63.6369541,138.446072 58.8102194,137.961776 66.3411304,130.62551 C73.8720414,123.286927 62.383347,137.382475 57.5542952,137.382475 C52.7275606,137.382475 52.4379102,132.168768 58.907542,127.631684 C65.3748566,123.094599 51.8586093,137.57712 44.0380479,136.321196 C36.2174865,135.065272 32.452031,135.549567 40.369915,130.433182 C48.2854817,125.31448 50.2180293,123.094599 50.2180293,123.094599 C50.2180293,123.094599 35.7355082,130.720516 29.3631989,130.046209 C22.9908897,129.369586 15.3626561,124.929824 24.0521688,123.576578 C32.7416815,122.225648 39.2113133,120.777396 40.9492158,119.231821 C40.9492158,119.231821 27.0459956,123.286927 18.5488108,120.198095 C10.051626,117.109263 6.67314348,114.307764 17.4875316,113.246485 C28.2996026,112.185206 35.9278361,110.349981 35.9278361,110.349981 C35.9278361,110.349981 16.5212578,112.569862 12.1765015,108.127783 C7.83174517,103.688021 3.29466096,99.2459422 11.3075502,100.404544 C19.3204395,101.563146 29.5555268,102.047441 29.5555268,102.047441 C29.5555268,102.047441 13.5274309,99.9225672 11.3075501,92.8736346 C9.08766924,85.8270191 2.13605934,79.3212089 8.70069651,81.9280627 C15.2676509,84.5349165 25.308093,95.6728146 34.5769065,96.0597875 C43.84572,96.4467605 51.2793085,101.081167 54.8524361,102.142446 C58.4232465,103.203726 62.5617717,105.036633 66.05148,106.294875 C76.4534059,110.041793 75.0399119,98.548464 68.2713608,94.9011858 L62.6961695,93.501595 Z" id="Fill-1" fill="#A3D9FF" transform="translate(80.605721, 72.359097) scale(-1, 1) rotate(-355.000000) translate(-80.605721, -72.359097) "></path>
                            <g id="Group-2" transform="translate(60.154329, 108.932504) rotate(-315.000000) translate(-60.154329, -108.932504) translate(17.654329, 67.432504)">
                                <g id="Group" transform="translate(-0.000000, 0.552632)">
                                    <ellipse id="Oval-1-Copy" stroke="#3DA8F5" stroke-width="4" cx="51.4951456" cy="17.4934211" rx="3.49514563" ry="3.49342105"></ellipse>
                                    <ellipse id="Oval-1-Copy-3" stroke="#3DA8F5" stroke-width="4" cx="53.4951456" cy="3.49342105" rx="3.49514563" ry="3.49342105"></ellipse>
                                    <ellipse id="Oval-1-Copy-5" stroke="#3DA8F5" stroke-width="4" cx="32.9029126" cy="53.3092105" rx="3.49514563" ry="3.49342105"></ellipse>
                                    <ellipse id="Oval-1-Copy-8" stroke="#3DA8F5" stroke-width="4" cx="4.25242718" cy="33.4934211" rx="3.49514563" ry="3.49342105"></ellipse>
                                    <ellipse id="Oval-1-Copy-6" stroke="#3DA8F5" stroke-width="4" cx="22.8058252" cy="64.9539474" rx="3.49514563" ry="3.49342105"></ellipse>
                                    <path d="M44.5533981,28.4671053 L48.8025612,22.0123395" id="Line" stroke="#3DA8F5" stroke-width="4" stroke-linecap="square"></path>
                                    <path d="M53.0452019,13.527058 L53.7523087,7.16309717" id="Line-Copy-11" stroke="#3DA8F5" stroke-width="4" stroke-linecap="square"></path>
                                    <path d="M35.2330097,49.4276316 L38.3398058,43.2171053" id="Line-Copy-4" stroke="#3DA8F5" stroke-width="4" stroke-linecap="square"></path>
                                    <path d="M8.49747468,33.3103032 L33.847743,33.3103032" id="Line-Copy-6" stroke="#3DA8F5" stroke-width="4" stroke-linecap="square"></path>
                                    <path d="M26.6893204,61.0723684 L30.5728155,56.4144737" id="Line-Copy-5" stroke="#3DA8F5" stroke-width="4" stroke-linecap="square"></path>
                                    <ellipse id="Oval-1-Copy-2" stroke="#3DA8F5" stroke-width="4" cx="60.8640777" cy="33.9013158" rx="3.49514563" ry="3.49342105"></ellipse>
                                    <ellipse id="Oval-1-Copy-4" stroke="#3DA8F5" stroke-width="4" cx="81.4951456" cy="24.4934211" rx="3.49514563" ry="3.49342105"></ellipse>
                                    <path d="M47.6601942,37.0065789 L56.592233,35.0657895" id="Line-Copy" stroke="#3DA8F5" stroke-width="4" stroke-linecap="square"></path>
                                    <path d="M65.773124,31.9118347 L77.086832,26.2549803" id="Line-Copy-2" stroke="#3DA8F5" stroke-width="4" stroke-linecap="square"></path>
                                    <ellipse id="Oval-1" fill="#FFE957" cx="39.5048544" cy="36.6184211" rx="8.54368932" ry="8.53947368"></ellipse>
                                </g>
                                <ellipse id="Oval-10-Copy-3" fill="#3DA8F5" cx="39.9417476" cy="2.94078947" rx="1.94174757" ry="1.94078947"></ellipse>
                                <ellipse id="Oval-10-Copy-4" fill="#3DA8F5" cx="23.9417476" cy="38.9407895" rx="1.94174757" ry="1.94078947"></ellipse>
                                <ellipse id="Oval-10-Copy-10" fill="#3DA8F5" cx="21.9417476" cy="21.9407895" rx="1.94174757" ry="1.94078947"></ellipse>
                                <ellipse id="Oval-10-Copy-5" fill="#3DA8F5" cx="25.9417476" cy="80.9407895" rx="1.94174757" ry="1.94078947"></ellipse>
                                <ellipse id="Oval-10-Copy-6" fill="#3DA8F5" cx="56.2038835" cy="47.6513158" rx="1.94174757" ry="1.94078947"></ellipse>
                                <ellipse id="Oval-10-Copy-8" fill="#3DA8F5" cx="67.0776699" cy="25.9144737" rx="1.94174757" ry="1.94078947"></ellipse>
                                <ellipse id="Oval-10-Copy-9" fill="#3DA8F5" cx="37.5631068" cy="22.0328947" rx="1.94174757" ry="1.94078947"></ellipse>
                                <ellipse id="Oval-10-Copy-11" fill="#3DA8F5" cx="78.9417476" cy="7.94078947" rx="1.94174757" ry="1.94078947"></ellipse>
                            </g>
                        </g>
                        <g id="Group-22" transform="translate(513.000000, 75.000000)">
                            <g id="Group-11" transform="translate(63.763277, 64.313438) rotate(-13.000000) translate(-63.763277, -64.313438) translate(11.763277, 10.313438)">
                                <path d="M53.8571429,18.2881911 L53.8571429,25.6312804 L57.8571429,25.6312804 L57.8571429,18.2881911 C56.9970831,17.7291186 56.4285714,16.7615414 56.4285714,15.6615835 C56.4285714,13.9310912 57.8356765,12.5282501 59.5714286,12.5282501 C61.3071806,12.5282501 62.7142857,13.9310912 62.7142857,15.6615835 C62.7142857,16.7615414 62.1457741,17.7291186 61.2857143,18.2881911 L61.2857143,25.6312804 L63.3883607,25.6312804 C63.1420186,21.6620396 64.0935979,18.0813919 67.6746032,14.9638056 C74.4363175,9.07712686 81.6506032,13.3259269 84.4128889,15.2247269 C86.4357142,16.6159255 87.7433256,19.0255001 87.2594852,20.6258312 C87.059506,22.1641986 85.7403738,23.3524925 84.1428571,23.3524925 C82.4071051,23.3524925 81,21.9496514 81,20.2191592 C81,19.4993279 81.2434718,18.8361902 81.6527931,18.3071331 C81.6203191,18.1989263 81.5880002,18.0893888 81.555746,17.978642 C80.6986032,15.0350178 71.9626032,12.4787875 68.3174603,19.7350178 C63.927746,28.4730299 78.3900317,48.9627511 81.555746,55.1035147 C84.5454603,60.9035996 87.031746,66.1653208 85.9363175,74.4732117 C84.8563175,82.6660238 70.6031746,91.7543996 70.6031746,91.7543996 C70.4128889,94.8877329 68.6986032,96.0271269 64.6031746,96.0271269 L38.4128889,96.0271269 C33.8414603,96.0271269 32.9843175,90.6150056 32.9843175,90.6150056 C25.555746,87.1016844 17.9363175,79.7907632 17.9363175,68.8713814 C17.9363175,57.9519996 25.555746,49.406545 29.1746032,43.8998541 C32.7934603,38.3925935 37.9363175,31.2713814 37.1746032,23.2956238 C36.4128889,15.3198662 29.9363175,15.1301572 26.6506032,15.177442 C24.5959219,15.207011 23.0440157,16.5177791 22.1928896,17.8440985 C22.8620472,18.4187081 23.2857143,19.2696072 23.2857143,20.2191592 C23.2857143,21.9496514 21.8786092,23.3524925 20.1428571,23.3524925 C18.4071051,23.3524925 17,21.9496514 17,20.2191592 C17,20.1391583 17.0030073,20.0598577 17.0089154,19.9813635 C16.8962351,18.65585 17.8888889,17.1713814 17.8888889,17.1713814 C24.507746,10.1925935 32.1386032,11.7210905 36.7460317,15.177442 C39.7383792,17.4222862 40.9635978,21.2124928 40.8688918,25.6312804 L43,25.6312804 L43,18.2881911 C42.1399402,17.7291186 41.5714286,16.7615414 41.5714286,15.6615835 C41.5714286,13.9310912 42.9785336,12.5282501 44.7142857,12.5282501 C46.4500378,12.5282501 47.8571429,13.9310912 47.8571429,15.6615835 C47.8571429,16.7615414 47.2886312,17.7291186 46.4285714,18.2881911 L46.4285714,25.6312804 L50.4285714,25.6312804 L50.4285714,18.2881911 C49.5685116,17.7291186 49,16.7615414 49,15.6615835 C49,13.9310912 50.4071051,12.5282501 52.1428571,12.5282501 C53.8786092,12.5282501 55.2857143,13.9310912 55.2857143,15.6615835 C55.2857143,16.7615414 54.7172026,17.7291186 53.8571429,18.2881911 Z M53.8571429,84.9313257 C55.2925722,84.8658429 56.6442488,84.7425051 57.8571429,84.5911359 L57.8571429,29.0494622 L53.8571429,29.0494622 L53.8571429,84.9313257 Z M50.4285714,84.9663672 C49.1142175,84.9312635 47.7692912,84.8366934 46.4285714,84.6638083 L46.4285714,29.0494622 L50.4285714,29.0494622 L50.4285714,84.9663672 Z M61.2857143,84.0289178 C61.6134037,83.9599338 61.9107871,83.891681 62.1746032,83.8259269 C67.3174603,82.5441087 76.507746,76.9895632 78.3174603,67.8744117 C80.1271746,58.7592602 68.3054603,46.0481814 65.8768889,37.0754541 C65.1190801,34.2750633 64.3340167,31.594135 63.8445096,29.0494622 L61.2857143,29.0494622 L61.2857143,84.0289178 Z M43,84.0317728 C38.7395209,82.9841235 34.8412365,80.9331596 32.507746,77.2271269 C24.9603175,65.2395632 25.8174603,57.477442 33.8414603,45.5138056 C37.2417286,40.4436719 39.7135392,34.4774807 40.5572773,29.0494622 L43,29.0494622 L43,84.0317728 Z" id="Combined-Shape" fill="#A3D9FF" transform="translate(52.180160, 53.992840) rotate(-150.000000) translate(-52.180160, -53.992840) "></path>
                                <g id="Group-4-Copy" transform="translate(26.696104, 22.000000)">
                                    <g id="Group-3" transform="translate(0.782615, -0.000000)">
                                        <ellipse id="Oval-1-Copy-5" stroke="#3DA8F5" stroke-width="4" cx="27.4368932" cy="57.4934211" rx="3.49514563" ry="3.49342105"></ellipse>
                                        <ellipse id="Oval-1-Copy-10" stroke="#3DA8F5" stroke-width="4" cx="20.4951456" cy="3.49342105" rx="3.49514563" ry="3.49342105"></ellipse>
                                        <ellipse id="Oval-1-Copy-8" stroke="#3DA8F5" stroke-width="4" cx="9.70873786" cy="30.4934211" rx="3.49514563" ry="3.49342105"></ellipse>
                                        <ellipse id="Oval-1-Copy-9" stroke="#3DA8F5" stroke-width="4" cx="27.4368932" cy="26.4934211" rx="3.49514563" ry="3.49342105"></ellipse>
                                        <ellipse id="Oval-1-Copy-6" stroke="#3DA8F5" stroke-width="4" cx="10.7087379" cy="61.4934211" rx="3.49514563" ry="3.49342105"></ellipse>
                                        <path d="M31.3883495,22.4802632 L39,14.3157895" id="Line" stroke="#3DA8F5" stroke-width="4" stroke-linecap="square"></path>
                                        <path d="M9.60194175,57.5986842 L9.60194177,36" id="Line-Copy-4" stroke="#3DA8F5" stroke-width="4" stroke-linecap="square"></path>
                                        <path d="M27.2718447,52.5986842 L27.2718447,31" id="Line-Copy-10" stroke="#3DA8F5" stroke-width="4" stroke-linecap="square"></path>
                                        <path d="M25,6.28947368 L33.3786408,10.0460526" id="Line-Copy-6" stroke="#3DA8F5" stroke-width="4" stroke-linecap="square"></path>
                                        <path d="M14.420712,30.0460526 L22.2135922,27" id="Line-Copy-8" stroke="#3DA8F5" stroke-width="4" stroke-linecap="square"></path>
                                        <path d="M14.420712,61.0460526 L22.2135922,58" id="Line-Copy-9" stroke="#3DA8F5" stroke-width="4" stroke-linecap="square"></path>
                                        <ellipse id="Oval-10-Copy-6" fill="#3DA8F5" cx="46.9417476" cy="26.9407895" rx="1.94174757" ry="1.94078947"></ellipse>
                                        <ellipse id="Oval-10-Copy-7" fill="#3DA8F5" cx="46.9417476" cy="50.9407895" rx="1.94174757" ry="1.94078947"></ellipse>
                                        <ellipse id="Oval-10-Copy-9" fill="#3DA8F5" cx="1.94174757" cy="45.9407895" rx="1.94174757" ry="1.94078947"></ellipse>
                                        <ellipse id="Oval-10-Copy-11" fill="#3DA8F5" cx="17.9417476" cy="15.9407895" rx="1.94174757" ry="1.94078947"></ellipse>
                                    </g>
                                </g>
                            </g>
                            <path d="M73.9450793,35.1871231 C72.9439283,33.7806704 71.3823065,32.801243 69.5302081,32.801243 C66.4870317,32.801243 64.0142569,35.2789832 64.0142569,38.3196769 L64.0142569,38.7752534 L73.9500448,50.1801823 L83.8759018,38.7752534 L83.8759018,38.3196769 C83.8759018,35.2789832 81.403127,32.801243 78.3599506,32.801243 C76.5078522,32.801243 74.9462304,33.7806704 73.9450793,35.1871231 L73.9450793,35.1871231 Z" id="Shape" fill="#F74566" transform="translate(73.945079, 41.490713) rotate(-330.000000) translate(-73.945079, -41.490713) "></path>
                        </g>
                    </g>
                </g>
            </g>
        </g>
    </g>
</svg>