<?xml version="1.0" encoding="utf-8"?>
<!-- Generator: Adobe Illustrator 16.0.0, SVG Export Plug-In . SVG Version: 6.00 Build 0)  -->
<!DOCTYPE svg PUBLIC "-//W3C//DTD SVG 1.1//EN" "http://www.w3.org/Graphics/SVG/1.1/DTD/svg11.dtd">
<svg version="1.1" id="图层_1" xmlns="http://www.w3.org/2000/svg" xmlns:xlink="http://www.w3.org/1999/xlink" x="0px" y="0px"
	 width="800px" height="600px" viewBox="0 0 800 600" enable-background="new 0 0 800 600" xml:space="preserve">
<g>
	<path fill="#03A9F4" d="M614.4,247.2c-3.468,0-6.533,1.2-9.2,3.466c-2.533,2.267-3.867,5.467-3.867,9.6
		c0,4.133,1.334,7.2,3.867,9.6c2.533,2.267,5.6,3.467,9.2,3.467c3.6,0,6.532-1.2,9.198-3.467c2.533-2.267,3.867-5.467,3.867-9.6
		c0-4.133-1.334-7.2-3.867-9.6C620.934,248.4,617.867,247.2,614.4,247.2z"/>
	<path fill="#03A9F4" d="M677.467,283.467c-22,0-39.867,17.867-39.867,39.866v5.867c0,22,17.867,39.866,39.867,39.866
		s39.866-17.866,39.866-39.866v-5.867C717.333,301.334,699.467,283.467,677.467,283.467z M697.066,329.2
		c0,10.8-8.935,19.6-19.733,19.6S658,340,658,329.2v-5.733c0-10.8,8.533-19.6,19.333-19.6s19.733,8.8,19.733,19.6V329.2z"/>
	<path fill="#03A9F4" d="M332,283.467c-8.533,0.267-17.6,5.867-23.2,14.533c-1.333-2-1.866-2.8-2.933-4.4
		c-2.533-3.6-10.667-10.534-21.733-10.133c-6.667,0.133-13.066,3.466-18.8,8.667v-6.8h-23.2v81.333h23.2v-49.733
		c0-6.267,5.466-11.6,13.066-11.6c6.133,0,11.6,5.333,11.6,11.6v49.733h23.2v-49.733c0-6.267,5.466-11.6,13.066-11.6
		c6.133,0,11.6,5.333,11.6,11.6v49.733h23.2V321.2c0-6.134-0.267-11.334-1.466-16c-1.2-4.667-3.333-8.134-5.733-11.6
		C351.333,290.267,343.066,283.2,332,283.467z"/>
	<path fill="#03A9F4" d="M798.533,305.2c-1.2-4.667-3.333-8.4-5.733-11.6c-2.8-3.6-10.8-10.534-23.2-10.133
		c-5.198,0.133-11.6,3.333-17.333,8.667v-6.8h-23.199v81.333h23.199v-51.2c0-6.667,6.268-10.133,11.602-10.133
		c7.466,0,13.065,5.199,13.065,11.6v49.733H800V321.2C800,314.934,799.733,309.866,798.533,305.2z"/>
	<path fill="#03A9F4" d="M43.867,348.667c-2.667,0.399-5.2,0.666-7.733,0.666c-5.2,0-8.667-1.467-10.4-4.267
		c-1.733-2.934-2.533-6.801-2.533-11.601v-27.733h28.933v-20.267H23.2v-24l-23.2,1.6v70.667c0,5.199,0.533,10,1.467,14.399
		c0.933,4.399,2.667,8,5.2,11.066c2.534,3.065,5.867,5.467,10,7.065C20.8,367.864,26,368.8,32.4,368.8c4.934,0,9.2-0.398,12.667-1.2
		c3.466-0.8,7.733-2,10.533-3.198l-4.8-17.733C48.533,347.6,46.533,348.267,43.867,348.667z"/>
	<path fill="#03A9F4" d="M580,348.934c-2.667,0.399-5.2,0.666-7.733,0.666c-5.199,0-8.667-1.467-10.398-4.267
		c-1.733-2.933-2.534-6.8-2.534-11.6v-28.001h28.934v-20.267h-28.934v-23.733l-23.199,1.6V334c0,5.2,0.533,10,1.467,14.4
		c0.934,4.398,2.666,8,5.199,11.065c2.533,3.066,5.867,5.467,10,7.066c4.135,1.732,9.334,2.533,15.733,2.533
		c4.934,0,9.2-0.399,12.667-1.2c3.467-0.8,7.732-2,10.533-3.199l-4.801-17.733C584.667,347.866,582.667,348.533,580,348.934z"/>
	<path fill="#03A9F4" d="M419.066,283.467c-8.801,0-17.333,3.466-23.2,9.2v-46.933l-23.2,1.467v119.467h23.2v-6.801
		c5.732,5.732,14.399,9.2,23.2,9.2c20,0,36.267-17.866,36.267-39.866v-5.867C455.333,301.334,439.066,283.467,419.066,283.467z
		 M434.934,329.2c0,10.8-8.8,19.6-19.601,19.6c-10.8,0-19.6-8.8-19.6-19.6v-5.733c0-10.8,8.8-19.6,19.6-19.6
		c10.801,0,19.601,8.8,19.601,19.6V329.2z"/>
	<rect x="602.8" y="285.467" fill="#03A9F4" width="23.2" height="81.2"/>
	<g>
		<ellipse fill="#0F93ED" cx="99.867" cy="364.133" rx="41.867" ry="10.4"/>
		<ellipse fill="#0F93ED" cx="193.467" cy="366.533" rx="38.8" ry="8.8"/>
		<path fill="#FFE600" d="M158.267,328.8c-6.267-7.6-12.933-16.267-20.933-22.533c-0.8-22.133-14.8-36.267-36.8-36.267
			C79.6,270,65.6,283.733,63.867,306c-6.4,1.467-11.733,7.733-10.4,14.667c0.267,1.6,2.8,0.933,2.533-0.667
			c-0.933-5.2,3.067-9.866,7.733-11.2c0,0.8-0.133,1.467-0.133,2.268c0,14.267,4.933,25.334,13.733,32.267
			C73.467,350.134,68,356,64.667,363.066c-0.8,1.467,1.467,2.801,2.267,1.334c3.467-6.935,8.8-12.802,12.534-19.602
			c6,4,13.6,6.134,22.533,6.134c2.267,0,4.4-0.134,6.533-0.399c-0.133,0.267-0.133,0.667,0.133,0.934
			c4,7.467,14.267,9.333,18.267,16.667c0.8,1.466,3.066,0.133,2.267-1.334c-4-7.467-14.267-9.333-18.267-16.666l0,0
			c14.134-2.801,24.4-12.134,26.8-23.467h-20.8c-2,2.8-7.2,8.133-15.066,8.133c-10.4,0-17.733-7.467-17.733-16.666V317.2h53.333V310
			c7.2,6,13.2,13.867,19.066,20.934C157.6,332,159.333,330.134,158.267,328.8z M84.133,303.334c0-9.601,7.333-16.401,16.4-16.401
			c9.067,0,16.4,6.8,16.4,16.401H84.133z"/>
		<g>
			<g>
				<circle fill="#E3E4E5" cx="143.733" cy="345.333" r="19.2"/>
			</g>
			<g>
				<g>
					<g>
						<path fill="#FFFFFF" d="M131.067,341.467c-0.133,0-0.267-0.134-0.267-0.267l-0.4-6.935c0-0.133,0.133-0.267,0.133-0.399
							l5.733-4.399c0.133-0.134,0.267-0.134,0.4-0.134l6.534,2.267c0.133,0,0.267,0.135,0.267,0.268l0.133,5.601
							c0,0.133-0.133,0.268-0.133,0.399l-6.533,4.934c-0.134,0.134-0.267,0.134-0.4,0.134L131.067,341.467z"/>
					</g>
					<g>
						<path fill="#F7F8F8" d="M159.2,353.733c0,0.133-0.133,0.267-0.267,0.267l-6.667,2c-0.133,0-0.267,0-0.4-0.134L148.4,351.2
							c-0.133-0.134-0.133-0.268-0.133-0.4l2.4-7.732c0-0.134,0.133-0.268,0.267-0.268l5.333-1.732c0.133,0,0.267,0,0.4,0.134
							l4.4,5.333c0.133,0.134,0.133,0.267,0.133,0.399L159.2,353.733z"/>
					</g>
					<g>
						<path fill="#EEEFEF" d="M150.933,342.8c-0.133,0-0.267,0-0.4,0l-6.667-4.666c-0.133-0.134-0.267-0.268-0.267-0.399
							l-0.133-5.601c0-0.134,0.133-0.268,0.267-0.268l6.4-2.533c0.133,0,0.267,0,0.4,0l5.867,4.134
							c0.133,0.133,0.133,0.268,0.133,0.4L156.4,340.8c0,0.134-0.133,0.268-0.267,0.268L150.933,342.8z"/>
					</g>
					<g>
						<path fill="#EEEFEF" d="M136.133,356.267c-0.133,0.135-0.267,0.135-0.4,0.135l-6.8-1.733c-0.133,0-0.267-0.134-0.267-0.267
							l-2.4-6.802c0-0.133,0-0.267,0.133-0.398l4.267-5.602c0.133-0.133,0.267-0.133,0.4-0.133l5.466,1.601
							c0.133,0,0.267,0.134,0.267,0.267l2.667,7.733c0,0.134,0,0.267,0,0.399L136.133,356.267z"/>
					</g>
					<g>
						<path fill="#FFFFFF" d="M151.733,355.866c0.133,0.134,0.133,0.268,0,0.399L148,362.134c-0.133,0.133-0.267,0.268-0.4,0.268
							l-7.2,0.133c-0.133,0-0.267-0.133-0.4-0.133l-4-5.733c-0.133-0.134-0.133-0.267,0-0.4l3.2-4.8
							c0.133-0.134,0.267-0.267,0.4-0.267l8.133-0.134c0.133,0,0.267,0.134,0.4,0.134L151.733,355.866z"/>
					</g>
				</g>
				<g>
					<path fill="#213228" d="M130.267,334.267c0-0.134-0.133-0.267-0.267-0.134l-2.267,0.801c-0.133,0-0.267,0.134-0.267,0.268
						l-2.934,9.6c0,0.134,0,0.268,0.133,0.4l1.467,1.866c0.133,0.134,0.267,0.134,0.267,0l4.267-5.601
						c0.133-0.134,0.133-0.267,0.133-0.399L130.267,334.267z M150.133,329.2c0.133,0,0.133-0.134,0.133-0.268l-1.467-1.866
						c-0.133-0.134-0.267-0.268-0.4-0.268c0,0-3.2-0.666-5.066-0.533c-1.867,0-5.067,0.801-5.067,0.801
						c-0.133,0-0.267,0.134-0.4,0.267l-1.333,2c-0.133,0.134,0,0.267,0.133,0.267l6.534,2.268c0.133,0,0.267,0,0.4,0L150.133,329.2z
						 M147.867,351.066c0.133,0,0.267-0.134,0.267-0.268l2.4-7.732c0-0.134,0-0.268-0.133-0.399L143.733,338
						c-0.133-0.134-0.267-0.134-0.4,0l-6.534,4.934c-0.133,0.134-0.133,0.268-0.133,0.399l2.667,7.733
						c0,0.134,0.133,0.267,0.267,0.267L147.867,351.066z M159.6,334.533c0-0.133-0.267-0.268-0.4-0.268l-2.267-0.667
						c-0.133,0-0.267,0-0.267,0.135l-0.133,6.934c0,0.133,0,0.267,0.133,0.399l4.4,5.334c0.133,0.133,0.267,0.133,0.267,0l1.333-2
						c0.133-0.135,0.133-0.268,0.133-0.4L159.6,334.533z M148.133,362.267c-0.133,0.135,0,0.268,0.133,0.268l2.267,0.667
						c0.133,0,0.267,0,0.4,0l8-6.134c0.134-0.134,0.134-0.268,0.134-0.399v-2.4c0-0.134-0.134-0.267-0.267-0.134l-6.667,2
						c-0.133,0-0.267,0.134-0.4,0.269L148.133,362.267z M129.067,354.667c-0.133,0-0.267,0-0.267,0.133v2.4
						c0,0.133,0.134,0.267,0.134,0.398l8.267,5.733c0.133,0,0.267,0.134,0.4,0l2.267-0.8c0.133,0,0.133-0.133,0.133-0.268l-4-5.732
						c-0.133-0.133-0.267-0.268-0.4-0.268L129.067,354.667z"/>
				</g>
			</g>
		</g>
		<path fill="#FFB103" d="M240.667,336.934c-3.333-5.866-5.466-12.399-10.533-16.934l-0.533-45.733l-20.934,0.267l0.133,6.533
			c-5.333-5.066-13.066-8.133-21.066-8c-18,0.267-32.4,16.534-32.267,36.267v5.2c0,1.2,0.133,2.399,0.267,3.467
			c-2.934,4.267-5.2,9.066-7.2,14c-0.533,1.333,1.467,2.533,2,1.2c1.733-4,3.467-8,5.733-11.602c2.8,14.135,13.067,25.2,26,27.867
			c-1.467,5.733-2.4,11.467-2.933,17.333c-0.133,1.467,2.267,1.467,2.4,0c0.4-5.732,1.467-11.467,2.933-16.934
			c1.333,0.134,2.667,0.268,4.133,0.268c4.134,0,8.267-0.934,12-2.534c0.8,6.667,2.4,13.067,4.934,19.468
			c0.533,1.467,2.8,0.8,2.267-0.666c-2.533-6.4-4.133-12.935-4.933-19.867c2.533-1.333,4.667-2.935,6.667-4.935l0.133,6.135
			l20.933-0.268l-0.267-24.267c3.867,4.133,5.733,9.866,8.534,14.934C239.333,339.467,241.333,338.267,240.667,336.934z
			 M191.6,331.866c-9.733,0.134-17.733-7.733-17.867-17.466v-5.2c-0.133-9.733,7.733-17.733,17.467-17.867
			c9.734-0.134,17.733,7.733,17.867,17.466v5.2C209.2,323.733,201.333,331.733,191.6,331.866z"/>
	</g>
	<g>
		<g>
			
				<radialGradient id="SVGID_1_" cx="365.2036" cy="113.2295" r="46.2282" gradientTransform="matrix(1.3333 0 0 -1.3333 7.6664 462.3137)" gradientUnits="userSpaceOnUse">
				<stop  offset="0" style="stop-color:#E6E6E6"/>
				<stop  offset="0.1718" style="stop-color:#EBEBEB;stop-opacity:0.9995"/>
				<stop  offset="0.5311" style="stop-color:#F2F2F2;stop-opacity:0.9985"/>
				<stop  offset="0.9949" style="stop-color:#DCDDDD"/>
			</radialGradient>
			<path fill="url(#SVGID_1_)" d="M518.533,310.4c2.267-15.467,0.134-20.4-1.733-26.134c-0.267-0.667-0.533-1.2-0.933-1.733
				c1.731-10.4,0.398-14-1.867-18.933c-2.267-4.667-8.4-3.467-11.866-2.667c0-0.534,0.133-0.934,0.133-1.333
				c0-2.934,6.801-2.267,9.468-2.8c2.667-0.533,5.333-10.4,2.399-10.4s-11.601,0-21.732,0l0,0l0,0c-10.134,0-18.802,0-21.733,0
				c-2.934,0-0.267,9.867,2.399,10.4c2.667,0.534,9.467-0.133,9.467,2.8c0,0.4,0,0.8,0.134,1.333
				C479.2,260,473.066,258.8,470.8,263.6c-2.267,4.933-3.467,8.533-1.866,18.933c-0.399,0.533-0.667,1.067-0.934,1.733
				c-2,5.867-4,10.667-1.733,26.134c2.268,15.466,13.867,28.666,15.602,32.133c1.731,3.467,3.6,8.8,0,15.467
				c-3.602,6.667-8.134,6-7.467,10.267c0.398,2.667,5.198,4,10,4.667v0.268c0,0,2.933,0.398,8,0.267c5.065,0.133,8-0.267,8-0.267
				v-0.268c4.8-0.667,9.6-2,10-4.667c0.8-4.267-3.867-3.6-7.468-10.267s-1.732-12,0-15.467
				C504.667,339.066,516.267,325.866,518.533,310.4z M482.8,273.867c-0.934,2.133-5.6,3.333-9.6,5.333
				c-0.4-1.867-1.066-5.733-0.134-8.667c1.199-4,1.866-5.867,5.199-5.867c1.601,0,3.468,0.667,4.935,1.333
				C483.333,268.933,483.6,272.133,482.8,273.867z M501.866,273.867c-0.8-1.867-0.666-4.933-0.399-7.867
				c1.467-0.667,3.333-1.467,4.935-1.333c3.198,0.133,3.865,1.867,5.198,5.867c0.935,2.934,0.269,6.8-0.133,8.667
				C507.467,277.2,502.8,276,501.866,273.867z"/>
			<g>
				<g>
					<g>
						<g>
							<defs>
								<path id="SVGID_2_" d="M518.533,310.4c2.267-15.467,0.134-20.4-1.733-26.134c-0.267-0.667-0.533-1.2-0.933-1.733
									c1.731-10.4,0.398-14-1.867-18.933c-2.267-4.667-8.4-3.467-11.866-2.667c0-0.534,0.133-0.934,0.133-1.333
									c0-2.934,6.801-2.267,9.468-2.8c2.667-0.533,5.333-10.4,2.399-10.4s-11.601,0-21.732,0l0,0l0,0c-10.134,0-18.802,0-21.733,0
									c-2.934,0-0.267,9.867,2.399,10.4c2.667,0.534,9.467-0.133,9.467,2.8c0,0.4,0,0.8,0.134,1.333
									C479.2,260,473.066,258.8,470.8,263.6c-2.267,4.933-3.467,8.533-1.866,18.933c-0.399,0.533-0.667,1.067-0.934,1.733
									c-2,5.867-4,10.667-1.733,26.134c2.268,15.466,13.867,28.666,15.602,32.133c1.731,3.467,3.6,8.8,0,15.467
									c-3.602,6.667-8.134,6-7.467,10.267c0.398,2.667,5.198,4,10,4.667v0.268c0,0,2.933,0.398,8,0.267
									c5.065,0.133,8-0.267,8-0.267v-0.268c4.8-0.667,9.6-2,10-4.667c0.8-4.267-3.867-3.6-7.468-10.267s-1.732-12,0-15.467
									C504.667,339.066,516.267,325.866,518.533,310.4z M482.8,273.867c-0.934,2.133-5.6,3.333-9.6,5.333
									c-0.4-1.867-1.066-5.733-0.134-8.667c1.199-4,1.866-5.867,5.199-5.867c1.601,0,3.468,0.667,4.935,1.333
									C483.333,268.933,483.6,272.133,482.8,273.867z M501.866,273.867c-0.8-1.867-0.666-4.933-0.399-7.867
									c1.467-0.667,3.333-1.467,4.935-1.333c3.198,0.133,3.865,1.867,5.198,5.867c0.935,2.934,0.269,6.8-0.133,8.667
									C507.467,277.2,502.8,276,501.866,273.867z"/>
							</defs>
							<clipPath id="SVGID_3_">
								<use xlink:href="#SVGID_2_"  overflow="visible"/>
							</clipPath>
							<path clip-path="url(#SVGID_3_)" fill="#03A9F4" d="M466.934,251.2c11.601-1.2,17.333,1.6,22.935,8.533
								c6.398,7.733-1.2,11.467-10.269,24.267c-9.333,13.2-9.731,43.467-9.731,43.467L447.6,286.934l7.733-26.134L466.934,251.2z"/>
						</g>
					</g>
				</g>
				<g>
					<g>
						<g>
							<defs>
								<path id="SVGID_4_" d="M518.533,310.4c2.267-15.467,0.134-20.4-1.733-26.134c-0.267-0.667-0.533-1.2-0.933-1.733
									c1.731-10.4,0.398-14-1.867-18.933c-2.267-4.667-8.4-3.467-11.866-2.667c0-0.534,0.133-0.934,0.133-1.333
									c0-2.934,6.801-2.267,9.468-2.8c2.667-0.533,5.333-10.4,2.399-10.4s-11.601,0-21.732,0l0,0l0,0c-10.134,0-18.802,0-21.733,0
									c-2.934,0-0.267,9.867,2.399,10.4c2.667,0.534,9.467-0.133,9.467,2.8c0,0.4,0,0.8,0.134,1.333
									C479.2,260,473.066,258.8,470.8,263.6c-2.267,4.933-3.467,8.533-1.866,18.933c-0.399,0.533-0.667,1.067-0.934,1.733
									c-2,5.867-4,10.667-1.733,26.134c2.268,15.466,13.867,28.666,15.602,32.133c1.731,3.467,3.6,8.8,0,15.467
									c-3.602,6.667-8.134,6-7.467,10.267c0.398,2.667,5.198,4,10,4.667v0.268c0,0,2.933,0.398,8,0.267
									c5.065,0.133,8-0.267,8-0.267v-0.268c4.8-0.667,9.6-2,10-4.667c0.8-4.267-3.867-3.6-7.468-10.267s-1.732-12,0-15.467
									C504.667,339.066,516.267,325.866,518.533,310.4z M482.8,273.867c-0.934,2.133-5.6,3.333-9.6,5.333
									c-0.4-1.867-1.066-5.733-0.134-8.667c1.199-4,1.866-5.867,5.199-5.867c1.601,0,3.468,0.667,4.935,1.333
									C483.333,268.933,483.6,272.133,482.8,273.867z M501.866,273.867c-0.8-1.867-0.666-4.933-0.399-7.867
									c1.467-0.667,3.333-1.467,4.935-1.333c3.198,0.133,3.865,1.867,5.198,5.867c0.935,2.934,0.269,6.8-0.133,8.667
									C507.467,277.2,502.8,276,501.866,273.867z"/>
							</defs>
							<clipPath id="SVGID_5_">
								<use xlink:href="#SVGID_4_"  overflow="visible"/>
							</clipPath>
							<path clip-path="url(#SVGID_5_)" fill="#D31513" d="M520.533,290.533c-0.935,9.867-3.866,16.934-10.133,26.134
								c-6.269,9.199-15.468,20.533-14.935,26.533s2.399,15.732,6,17.2c3.601,1.466,14.935-4.4,14.935-4.4l12.532-47.066
								L520.533,290.533z"/>
						</g>
					</g>
				</g>
			</g>
			<circle fill="#D31513" cx="494.667" cy="292.667" r="7.333"/>
		</g>
		<path fill="#FFC71A" d="M460.533,260.4c-4.533-1.466-9.2-3.066-13.733-4.533c2.667-0.533,5.2-1.067,7.867-1.6
			c0.8-0.133,0.399-1.333-0.267-1.2c-2.534,0.534-5.067,1.067-7.733,1.6c1.866-2.533,3.866-5.066,5.733-7.6
			c0.532-0.667-0.534-1.2-1.067-0.667c-2.133,2.934-4.399,5.733-6.533,8.667l0,0c-2.666-1.6-5.6-5.466-7.866-7.6
			c-0.532-0.533-1.467,0.267-0.934,0.933c1.733,1.733,3.467,3.333,5.2,5.067c0.533,0.533,1.2,1.333,2,2.133
			c-2.4,0.533-4.8,0.933-7.334,1.466c-0.8,0.134-0.399,1.333,0.268,1.2c2.666-0.4,5.333-0.933,8-1.333
			c0,0.533,0.133,0.933,0.133,1.466c0.135,2.133,0.135,4.133,0.268,6.267c0,0.8,1.334,0.8,1.2,0c-0.135-1.6-0.135-3.333-0.268-4.933
			c0-1.067-0.134-1.867-0.134-2.667c4.934,1.6,9.733,3.2,14.667,4.934C460.934,261.733,461.2,260.533,460.533,260.4z"/>
		<path fill="#03A9F4" d="M473.467,239.333c-2.8-1.867-5.601-3.733-8.399-5.6c2.399-0.267,4.667-0.533,7.066-0.934
			c0.399,0,0.399-0.667,0-0.667c-2.667,0.267-5.2,0.667-7.867,0.933l-0.133-0.133c-0.134-0.8,0-1.6,0-2.534c0-1.867,0-3.733,0-5.6
			c0-0.4-0.667-0.4-0.667,0c0,1.867,0,3.733,0,5.6c0,0.534-0.134,1.333-0.134,2c-1.6-1.066-3.066-2.133-4.666-3.066
			c-0.4-0.267-0.667,0.267-0.267,0.533c1.6,1.2,3.333,2.4,4.933,3.6c-0.399,0.4-0.666,0.8-0.933,1.2
			c-0.935,1.067-2,2.133-2.935,3.067c-0.267,0.267,0.133,0.8,0.533,0.4c0.934-0.933,1.733-1.867,2.667-2.8
			c0.399-0.4,0.8-0.934,1.333-1.333c1.733,3.467,3.333,6.8,5.066,10.267c0.134,0.4,0.8,0,0.532-0.267
			c-1.6-3.333-3.333-6.667-4.933-10c2.933,2,5.866,3.867,8.8,5.867C473.467,240.133,473.866,239.6,473.467,239.333z"/>
	</g>
</g>
</svg>
