<?xml version="1.0" encoding="utf-8"?>
<!-- Generator: Adobe Illustrator 18.0.0, SVG Export Plug-In . SVG Version: 6.00 Build 0)  -->
<!DOCTYPE svg PUBLIC "-//W3C//DTD SVG 1.1//EN" "http://www.w3.org/Graphics/SVG/1.1/DTD/svg11.dtd">
<svg version="1.1" id="图层_1" xmlns="http://www.w3.org/2000/svg" xmlns:xlink="http://www.w3.org/1999/xlink" x="0px" y="0px"
	 viewBox="0 0 1576.1 1182.1" enable-background="new 0 0 1576.1 1182.1" xml:space="preserve">
<g>
	<path fill="#0096FF" d="M1324.8,558.1c-45.2,0-81.8,36.6-81.8,81.8v11.9c0,45.1,36.6,81.8,81.8,81.8c45.2,0,81.8-36.6,81.8-81.8
		v-11.9C1406.6,594.7,1370,558.1,1324.8,558.1z M1365,651.8c0,22.2-18.3,40.1-40.5,40.1c-22.2,0-39.8-18-39.8-40.2v-11.9
		c0-22.2,17.6-40.2,39.8-40.2c22.2,0,40.5,17.9,40.5,40.2V651.8z"/>
	<path fill="#0096FF" d="M681,563.1c-17.6,0.5-36,12-47.6,29.7c-2.6-4.1-3.7-5.8-5.9-8.9c-5.2-7.4-21.9-21.5-44.6-20.8
		c-13.7,0.4-26.8,7.1-38.7,17.8V567h-47.6v166.5h47.6V631.5c0-12.9,11.3-23.7,26.8-23.8c12.5,0,23.8,10.9,23.8,23.8v102.1h47.6
		V631.5c0-12.9,11.3-23.7,26.8-23.8c12.5,0,23.8,10.9,23.8,23.8v102.1h47.6v-93.2c0-12.6-0.7-23.2-3-32.7
		c-2.4-9.7-6.9-16.8-11.9-23.8C720.6,576.9,703.7,562.4,681,563.1z"/>
	<path fill="#0096FF" d="M1573.1,607.7c-2.5-9.4-6.9-17.1-11.9-23.8c-5.6-7.5-22-21.5-47.6-20.8c-10.8,0.3-23.8,6.9-35.7,17.8V567
		h-47.6v166.5h47.6V628.5c0-13.8,12.8-20.9,23.8-20.8c15.3,0.1,26.8,10.8,26.8,23.8v102.1h47.6v-93.2
		C1576.1,627.6,1575.6,617.1,1573.1,607.7z"/>
	<path fill="#0096FF" d="M89.9,692.1c-5.4,1-10.7,1.4-15.8,1.4c-10.6,0-17.7-3-21.3-8.9c-3.5-5.9-5.3-13.9-5.3-23.8v-56.8h59.5
		v-41.6H47.6v-49.2L0,516.6v144.9c0,10.8,1,20.6,3,29.5c2,8.9,5.6,16.5,10.7,22.7c5.1,6.2,11.9,11.1,20.5,14.6
		c8.5,3.5,19.3,5.2,32.3,5.2c10.2,0,18.9-0.8,25.9-2.5c7-1.7,15.7-4.1,21.5-6.5l-9.7-36.3C99.6,690,95.4,691.2,89.9,692.1z"/>
	<path fill="#0096FF" d="M1124.8,692.1c-5.4,1-10.7,1.4-15.8,1.4c-10.6,0-17.7-3-21.3-8.9c-3.5-5.9-5.3-13.9-5.3-23.8v-57.4h59.5
		v-41.6h-59.5v-48.6l-47.6,3.3v144.9c0,10.8,1,20.6,3,29.5c2,8.9,5.6,16.5,10.7,22.7c5.1,6.2,11.9,11.1,20.5,14.6
		c8.5,3.5,19.3,5.2,32.3,5.2c10.2,0,18.9-0.8,25.9-2.5c7-1.7,15.7-4.1,21.5-6.5l-9.7-36.3C1134.5,690,1130.2,691.2,1124.8,692.1z"/>
	<path fill="#0096FF" d="M859.5,558.1c-18.1,0-35.7,7.1-47.6,18.9v-96.2l-47.6,3v244.8h47.6v-14c11.9,11.8,29.5,18.9,47.6,18.9
		c41.1,0,74.3-36.6,74.3-81.8v-11.9C933.8,594.7,900.5,558.1,859.5,558.1z M892.2,651.8c0,22.2-18,40.1-40.1,40.1
		c-22.2,0-40.1-18-40.1-40.2v-11.9c0-22.2,18-40.2,40.1-40.2c22.2,0,40.1,17.9,40.1,40.2V651.8z"/>
	<g>
		<g>
			<path fill="#0096FF" d="M924.2,554.4V578h7.1v24.3h20.5l9.5,131.2h27.6l7.6-131.2l21.9,0V578h6.7v-23.6
				C1025.1,554.4,926,554.4,924.2,554.4z"/>
			<g>
				<rect x="933.3" y="554.4" fill="#0041AA" width="16.1" height="23.6"/>
				<rect x="936.3" y="578.1" fill="#0041AA" width="9.2" height="24.3"/>
			</g>
			<polygon fill="#0041AA" points="964.8,733.5 961.5,733.5 955.6,654.4 955.6,602.3 964.8,602.3 			"/>
		</g>
		<g>
			<path fill="#FF0815" d="M964.7,464.1c0,0-32.6,29-32,48.5c0.6,19.5,23.6,25.1,29.6,26.7s45.3,2.8,58-16.2
				c12.7-18.9,19.3-54,19.3-54l-35.6,18.4c0,0,16.3-33.4,23.6-39c0,0-50.1,21.7-58.6,32.3L964.7,464.1z"/>
			<path fill="#FFB103" d="M967.8,493.6c0,0-21.7,12.8-22.4,22.3c-0.6,9.5,7.2,20.1,23,21.7c15.7,1.7,32.6-5.6,37.5-11.7
				c4.8-6.1,16.9-29.5,16.9-29.5l-24.8,10c0,0,9.1-18.4,16.9-21.2c0,0-38.1,9.5-45.9,17.3L967.8,493.6z"/>
		</g>
	</g>
	<g>
		<g>
			<path fill="#0096FF" d="M1152.1,554.4V578h7.1v24.3h20.5l9.5,131.2h27.6l7.6-131.2l21.9,0V578h6.7v-23.6
				C1253,554.4,1153.9,554.4,1152.1,554.4z"/>
			<g>
				<rect x="1161.2" y="554.4" fill="#0041AA" width="16.1" height="23.6"/>
				<rect x="1164.2" y="578.1" fill="#0041AA" width="9.2" height="24.3"/>
			</g>
			<polygon fill="#0041AA" points="1192.6,733.5 1189.4,733.5 1183.5,654.4 1183.5,602.3 1192.6,602.3 			"/>
		</g>
		<g>
			<path fill="#FF0815" d="M1192.6,464.1c0,0-32.6,29-32,48.5c0.6,19.5,23.6,25.1,29.6,26.7s45.3,2.8,58-16.2s19.3-54,19.3-54
				l-35.6,18.4c0,0,16.3-33.4,23.6-39c0,0-50.1,21.7-58.6,32.3L1192.6,464.1z"/>
			<path fill="#FFB103" d="M1195.6,493.6c0,0-21.7,12.8-22.4,22.3c-0.6,9.5,7.2,20.1,23,21.7c15.7,1.7,32.6-5.6,37.5-11.7
				s16.9-29.5,16.9-29.5l-24.8,10c0,0,9.1-18.4,16.9-21.2c0,0-38.1,9.5-45.9,17.3L1195.6,493.6z"/>
		</g>
	</g>
	<g>
		<path fill="none" d="M353.2,628.7c-0.7,0-1.4-0.1-2.2-0.1c-2.7,0-5.3,0.3-7.8,0.7c-4.2,20.2-18.8,36.6-37.9,43.5
			c0,0.5-0.1,1-0.1,1.5c0,25.2,20.5,45.8,45.8,45.8c25.2,0,45.6-20.4,45.7-45.6C374.8,669,357.6,651.2,353.2,628.7z"/>
		<path fill="none" d="M331,618.8c0-0.5,0.1-1,0.1-1.5c0-25.2-20.5-45.8-45.8-45.8c-25.2,0-45.8,20.5-45.8,45.8c0,0.1,0,0.3,0,0.4
			c20.8,6.2,36.9,23.5,41.2,45.1c1.5,0.1,3,0.2,4.5,0.2c2.7,0,5.3-0.3,7.8-0.7C297.3,642.1,311.9,625.7,331,618.8z"/>
		<path fill="none" d="M409.1,662.9c0.7,0,1.4,0.1,2.2,0.1c25.2,0,45.8-20.5,45.8-45.8c0-25.2-20.5-45.8-45.8-45.8
			c-25.2,0-45.6,20.4-45.7,45.6C387.5,622.6,404.6,640.5,409.1,662.9z"/>
		<path fill="none" d="M367.9,631.9c4.3,12.7,14,22.9,26.4,27.8C390,647,380.3,636.8,367.9,631.9z"/>
		<path fill="none" d="M209.4,630.6c-14.5,4.4-25.9,15.9-30.3,30.3C193.5,656.5,204.9,645.1,209.4,630.6z"/>
		<path fill="none" d="M211.3,616.3c-0.5-24.8-20.8-44.8-45.7-44.8c-25.2,0-45.8,20.5-45.8,45.8c0,24.9,20,45.2,44.8,45.7
			C169.3,639.5,187.8,620.9,211.3,616.3z"/>
		<path fill="none" d="M227.3,628.9c-1.2-0.1-2.4-0.2-3.6-0.2c-4.6,23.5-23.1,42-46.6,46.6c0.5,24.8,20.8,44.8,45.7,44.8
			c25.2,0,45.8-20.5,45.8-45.8c0-0.1,0-0.3,0-0.4C247.6,667.8,231.6,650.4,227.3,628.9z"/>
		<path fill="none" d="M242.4,633.1c4.2,11.1,12.5,20.2,23.2,25.3C261.4,647.3,253.1,638.2,242.4,633.1z"/>
		<path fill="none" d="M327.3,635.3c-8.1,4.9-14.5,12.2-18.3,21C317.1,651.4,323.5,644.1,327.3,635.3z"/>
		<path fill="#231815" d="M343.2,629.3c-5.8,1-11.1,3.1-15.9,6c-3.8,8.7-10.2,16-18.3,21c-2.2,5.1-3.5,10.7-3.7,16.6
			C324.4,666,339,649.5,343.2,629.3z"/>
		<path fill="#231815" d="M242.4,633.1c-4.7-2.2-9.8-3.8-15.2-4.3c4.3,21.6,20.4,38.9,41.2,45.1c0-5.4-1.1-10.7-2.9-15.5
			C255,653.4,246.6,644.3,242.4,633.1z"/>
		<path fill="#231815" d="M239.5,617.2c0-25.2,20.5-45.8,45.8-45.8c25.2,0,45.8,20.5,45.8,45.8c0,0.5-0.1,1-0.1,1.5
			c4.3-1.5,8.8-2.7,13.4-3.2c-0.9-31.9-27-57.5-59.1-57.5c-32,0-58.1,25.5-59.1,57.3c4.6,0.3,9.1,1,13.4,2.3
			C239.6,617.5,239.5,617.4,239.5,617.2z"/>
		<path fill="#231815" d="M293.1,662.3c-2.5,0.4-5.1,0.7-7.8,0.7c-1.5,0-3-0.1-4.5-0.2c0.8,3.8,1.2,7.6,1.2,11.6
			c0,0.6-0.1,1.3-0.1,1.9c1.1,0.1,2.3,0.2,3.4,0.2c2.2,0,4.4-0.2,6.6-0.4c0-0.6-0.1-1.1-0.1-1.7
			C291.8,670.2,292.3,666.2,293.1,662.3z"/>
		<path fill="#FF0815" d="M367.9,631.9c-4.6-1.8-9.6-2.9-14.8-3.2c4.4,22.4,21.6,40.3,43.6,45.8c0-0.1,0-0.1,0-0.2
			c0-5.1-0.9-10.1-2.5-14.7C381.9,654.8,372.2,644.6,367.9,631.9z"/>
		<path fill="#FF0815" d="M411.2,558c-32,0-58,25.5-59.1,57.2c4.6,0.1,9.1,0.7,13.3,1.8c0.1-25.1,20.6-45.6,45.7-45.6
			c25.2,0,45.8,20.5,45.8,45.8c0,25.2-20.5,45.8-45.8,45.8c-0.7,0-1.4-0.1-2.2-0.1c0.7,3.7,1.1,7.6,1.1,11.5c0,0.7-0.1,1.3-0.1,2
			c0.4,0,0.7,0.1,1.1,0.1c32.6,0,59.2-26.6,59.2-59.2S443.9,558,411.2,558z"/>
		<path fill="#FFE600" d="M239.6,617.7c0,5.4,1.1,10.7,2.9,15.5c10.6,5.1,19,14.2,23.2,25.3c4.7,2.2,9.8,3.8,15.2,4.3
			C276.5,641.2,260.4,623.8,239.6,617.7z"/>
		<path fill="#FFE600" d="M223.7,628.7c1.2,0,2.4,0.1,3.6,0.2c-0.8-3.8-1.2-7.6-1.2-11.6c0-0.6,0.1-1.3,0.1-1.9
			c-0.5,0-1-0.1-1.5-0.1c0,0.7,0.1,1.3,0.1,2C224.8,621.2,224.4,625,223.7,628.7z"/>
		<path fill="#FFE600" d="M209.4,630.6c1.3-4.2,2-8.7,2-13.4c0-0.3,0-0.6,0-0.9c-23.5,4.6-42,23.1-46.6,46.6c0.3,0,0.6,0,0.9,0
			c4.7,0,9.2-0.7,13.4-2C183.5,646.5,194.9,635.1,209.4,630.6z"/>
		<path fill="#FFE600" d="M268.5,674.4c0,25.2-20.5,45.8-45.8,45.8c-24.9,0-45.2-20-45.7-44.8c-3.7,0.7-7.5,1.1-11.4,1.1
			c-0.7,0-1.3-0.1-2-0.1c1,31.7,27.1,57.2,59.1,57.2c32,0,58.1-25.5,59.1-57.3c-4.6-0.3-9.1-1-13.4-2.3
			C268.5,674.1,268.5,674.2,268.5,674.4z"/>
		<path fill="#FFE600" d="M177,675.3c0-0.3,0-0.6,0-0.9c0-4.7,0.7-9.2,2-13.4c-4.2,1.3-8.7,2-13.4,2c-0.3,0-0.6,0-0.9,0
			c-0.7,3.7-1.1,7.5-1.1,11.4c0,0.7,0.1,1.3,0.1,2c0.7,0,1.3,0.1,2,0.1C169.5,676.4,173.3,676,177,675.3z"/>
		<path fill="#0096FF" d="M211.3,616.3c0,0.3,0,0.6,0,0.9c0,4.7-0.7,9.2-2,13.4c4.2-1.3,8.7-2,13.4-2c0.3,0,0.6,0,0.9,0
			c0.7-3.7,1.1-7.5,1.1-11.4c0-0.7-0.1-1.3-0.1-2c-0.7,0-1.3-0.1-2-0.1C218.8,615.2,215,615.6,211.3,616.3z"/>
		<path fill="#231815" d="M280.8,662.8c-5.4-0.5-10.5-2-15.2-4.3c1.8,4.8,2.8,10,2.9,15.5c4.3,1.3,8.8,2,13.4,2.3
			c0-0.6,0.1-1.2,0.1-1.9C281.9,670.4,281.5,666.5,280.8,662.8z"/>
		<path fill="#FFE600" d="M227.3,628.9c5.4,0.5,10.5,2,15.2,4.3c-1.8-4.8-2.8-10-2.9-15.5c-4.3-1.3-8.8-2-13.4-2.3
			c0,0.6-0.1,1.2-0.1,1.9C226.1,621.2,226.5,625.1,227.3,628.9z"/>
		<path fill="#2AA658" d="M351,720.1c-25.2,0-45.8-20.5-45.8-45.8c0-0.5,0.1-1,0.1-1.5c-4.3,1.5-8.8,2.7-13.4,3.2
			c0.9,31.9,27,57.5,59.1,57.5c32,0,58-25.5,59.1-57.2c-4.6-0.1-9.1-0.7-13.3-1.8C396.6,699.7,376.2,720.1,351,720.1z"/>
		<path fill="#2AA658" d="M367.9,631.9c12.4,4.9,22.1,15.1,26.4,27.8c4.6,1.8,9.6,2.9,14.8,3.2c-4.4-22.4-21.6-40.3-43.6-45.8
			c0,0.1,0,0.1,0,0.2C365.5,622.4,366.4,627.3,367.9,631.9z"/>
		<path fill="#2AA658" d="M327.3,635.3c2.2-5.1,3.5-10.7,3.7-16.6c-19.1,6.9-33.7,23.3-37.9,43.5c5.8-1,11.1-3.1,15.9-6
			C312.8,647.5,319.2,640.2,327.3,635.3z"/>
		<path fill="#2AA658" d="M343.2,629.3c2.5-0.4,5.1-0.7,7.8-0.7c0.7,0,1.4,0.1,2.2,0.1c-0.7-3.7-1.1-7.6-1.1-11.5
			c0-0.7,0.1-1.3,0.1-2c-0.4,0-0.7-0.1-1.1-0.1c-2.2,0-4.4,0.2-6.6,0.4c0,0.6,0.1,1.1,0.1,1.7C344.5,621.4,344,625.4,343.2,629.3z"
			/>
		<path fill="#2AA658" d="M309,656.3c-4.8,2.9-10.2,5-15.9,6c-0.8,3.9-1.3,8-1.3,12.1c0,0.6,0.1,1.1,0.1,1.7
			c4.7-0.5,9.2-1.6,13.4-3.2C305.5,667,306.8,661.4,309,656.3z"/>
		<path fill="#231815" d="M327.3,635.3c4.8-2.9,10.2-5,15.9-6c0.8-3.9,1.3-8,1.3-12.1c0-0.6-0.1-1.1-0.1-1.7
			c-4.7,0.5-9.2,1.6-13.4,3.2C330.8,624.6,329.5,630.2,327.3,635.3z"/>
		<path fill="#2AA658" d="M353.2,628.7c5.2,0.2,10.2,1.3,14.8,3.2c-1.6-4.6-2.5-9.5-2.5-14.7c0-0.1,0-0.1,0-0.2
			c-4.3-1.1-8.7-1.7-13.3-1.8c0,0.7-0.1,1.3-0.1,2C352,621.2,352.4,625,353.2,628.7z"/>
		<path fill="#FF0815" d="M409.1,662.9c-5.2-0.2-10.2-1.3-14.8-3.2c1.6,4.6,2.5,9.5,2.5,14.7c0,0.1,0,0.1,0,0.2
			c4.3,1.1,8.7,1.7,13.3,1.8c0-0.7,0.1-1.3,0.1-2C410.2,670.4,409.8,666.6,409.1,662.9z"/>
		<path fill="#0096FF" d="M223.7,628.7c-0.3,0-0.6,0-0.9,0c-4.7,0-9.2,0.7-13.4,2c-4.4,14.5-15.9,25.9-30.3,30.3
			c-1.3,4.2-2,8.7-2,13.4c0,0.3,0,0.6,0,0.9C200.5,670.7,219.1,652.2,223.7,628.7z"/>
		<path fill="#0096FF" d="M164.7,662.9c-24.8-0.5-44.8-20.8-44.8-45.7c0-25.2,20.5-45.8,45.8-45.8c24.9,0,45.2,20,45.7,44.8
			c3.7-0.7,7.5-1.1,11.4-1.1c0.7,0,1.3,0.1,2,0.1c-1-31.7-27.1-57.2-59.1-57.2c-32.6,0-59.2,26.6-59.2,59.2c0,32,25.5,58,57.2,59.1
			c0-0.7-0.1-1.3-0.1-2C163.6,670.5,164,666.6,164.7,662.9z"/>
	</g>
</g>
</svg>
