<?xml version="1.0" encoding="UTF-8" standalone="no"?>
<svg width="442px" height="73px" viewBox="0 0 442 73" version="1.1" xmlns="http://www.w3.org/2000/svg" xmlns:xlink="http://www.w3.org/1999/xlink">
    <!-- Generator: Sketch 3.8.3 (29802) - http://www.bohemiancoding.com/sketch -->
    <title>Group 12</title>
    <desc>Created with Sketch.</desc>
    <defs>
        <path d="M1.10081291,0.231408323 C2.05550022,0.114295395 2.35384,1.16891954 4.2071998,1.16891954 C6.06055959,1.16891954 6.52227592,-0.471877086 7.62897445,0.348521243 C8.73567298,1.16891957 6.79930572,4.09329806 4.84792,4.09329819 C2.89653427,4.09329832 1.45496458,3.78025414 0.542694264,2.68125657 C-0.369576056,1.582259 0.146125606,0.34852125 1.10081291,0.231408323 Z" id="path-1"></path>
        <path d="M12.2994849,26.9407822 C12.2994849,24.0542596 12.794188,27.4618807 15.94048,23.6264922 C19.0867721,19.7911037 22.1818375,21.7235754 22.1818375,18.5767628 C22.1818375,15.4299502 25.0963899,19.9145081 27.1596042,13.7437688 C29.2228185,7.57302955 30,15.021886 30,10.1935586 C30,5.36523122 26.9283525,2.17901221 24.1430864,3.4623144 C21.3578202,4.74561658 23.7962088,-0.865136195 20.3079178,1.66258025 C16.8196269,4.1902967 11.6706168,2.57774278 11.6706168,6.74704957 C11.6706168,10.9163564 10.2831064,9.11195473 8.70971641,12.3915053 C7.13632645,15.6710559 4.97602544,14.7221901 4.97602544,17.9675183 C4.97602544,21.2128465 2.94013201,20.4604954 2.94013201,23.0172477 C2.94013201,25.574 0.349527035,24.9839413 2.01512508,28.362007 C3.68072312,31.7400727 -0.945775232,31.8375509 2.01512508,33.6424716 C4.97602539,35.4473923 7.88569916,35.7424207 7.88569933,34.7437777 C7.8856995,33.7451347 12.2994849,29.8273048 12.2994849,26.9407822 Z" id="path-3"></path>
        <path d="M12.2990516,26.9242353 C12.2990516,24.0377127 12.7937547,27.4453338 15.9400467,23.6099453 C19.0863388,19.7745568 22.1814042,21.7070285 22.1814042,18.5602159 C22.1814042,15.4134033 25.0959566,19.8979612 27.1591709,13.7272219 C29.2223852,7.55648265 30.6319005,10.5472616 30.6319005,8.349315 C30.6319005,6.15136836 26.9279192,2.16246531 24.1426531,3.4457675 C21.3573869,4.72906969 23.7957755,-0.881683091 20.3074845,1.64603336 C16.8191936,4.1737498 11.6701835,2.56119588 11.6701835,6.73050268 C11.6701835,10.8998095 10.2826731,9.09540783 8.70928312,12.3749584 C7.13589316,15.654509 4.97559215,14.7056432 4.97559215,17.9509714 C4.97559215,21.1962996 2.93969872,20.4439485 2.93969872,23.0007008 C2.93969872,25.5574531 0.349093739,24.9673944 2.01469178,28.3454601 C3.68028982,31.7235258 -0.946208528,31.821004 2.01469178,33.6259247 C4.97559209,35.4308454 7.88526586,35.7258738 7.88526603,34.7272308 C7.8852662,33.7285878 12.2990516,29.8107579 12.2990516,26.9242353 Z" id="path-5"></path>
        <path d="M12.2999611,26.9589664 C12.2999611,24.0724438 12.7946641,27.4800649 15.9409562,23.6446764 C19.0872482,19.8092879 22.1823136,21.7417596 22.1823136,18.594947 C22.1823136,15.4481344 25.0968661,19.9326923 27.1600804,13.761953 C29.2232947,7.59121374 29.3055737,12.5728571 29.3055737,7.74452973 C29.3055737,2.91620235 26.9288287,2.1971964 24.1435625,3.48049859 C21.3582964,4.76380077 23.7966849,-0.846952004 20.308394,1.68076444 C16.8201031,4.20848089 11.6710929,2.59592697 11.6710929,6.76523377 C11.6710929,10.9345406 10.2835825,9.13013892 8.71019258,12.4096895 C7.13680262,15.6892401 4.97650161,14.7403743 4.97650161,17.9857025 C4.97650161,21.2310307 2.94060818,20.4786796 2.94060818,23.0354319 C2.94060818,25.5921842 0.350003205,25.0021255 2.01560125,28.3801912 C3.68119929,31.7582569 -0.945299062,31.8557351 2.01560125,33.6606558 C4.97650156,35.4655765 7.88617533,35.7606049 7.8861755,34.7619619 C7.88617567,33.7633189 12.2999611,29.845489 12.2999611,26.9589664 Z" id="path-7"></path>
        <path d="M12.2997138,26.9495251 C12.2997138,24.0630024 12.7944169,27.4706235 15.940709,23.635235 C19.087001,19.7998465 22.1820664,21.7323182 22.1820664,18.5855056 C22.1820664,15.438693 25.0966189,19.923251 27.1598332,13.7525117 C29.2230475,7.58177239 28.7951489,11.2537551 29.5572358,8.78499941 C30.3193226,6.31624368 26.9285814,2.18775505 24.1433153,3.47105724 C21.3580492,4.75435943 23.7964377,-0.856393351 20.3081468,1.6713231 C16.8198558,4.19903954 11.6708457,2.58648562 11.6708457,6.75579242 C11.6708457,10.9250992 10.2833353,9.12069757 8.70994535,12.4002482 C7.13655539,15.6797988 4.97625438,14.7309329 4.97625438,17.9762611 C4.97625438,21.2215893 2.94036095,20.4692383 2.94036095,23.0259905 C2.94036095,25.5827428 0.349755975,24.9926841 2.01535402,28.3707499 C3.68095206,31.7488156 -0.945546293,31.8462937 2.01535402,33.6512144 C4.97625432,35.4561351 7.8859281,35.7511635 7.88592827,34.7525205 C7.88592844,33.7538775 12.2997138,29.8360477 12.2997138,26.9495251 Z" id="path-9"></path>
        <path d="M12.2993424,26.9353413 C12.2993424,24.0488187 12.7940455,27.4564397 15.9403375,23.6210512 C19.0866296,19.7856628 22.181695,21.7181344 22.181695,18.5713218 C22.181695,15.4245092 25.0962474,19.9090672 27.1594618,13.7383279 C29.2226761,7.56758861 29.0797125,10.0469944 30.0599447,7.77311636 C31.040177,5.49923834 26.92821,2.17357127 24.1429439,3.45687345 C21.3576777,4.74017564 23.7960663,-0.870577138 20.3077754,1.65713931 C16.8194844,4.18485576 11.6704743,2.57230183 11.6704743,6.74160863 C11.6704743,10.9109154 10.2829639,9.10651379 8.70957394,12.3860644 C7.13618398,15.665615 4.97588297,14.7167492 4.97588297,17.9620773 C4.97588297,21.2074055 2.93998954,20.4550545 2.93998954,23.0118068 C2.93998954,25.568559 0.349384559,24.9785004 2.0149826,28.3565661 C3.68058064,31.7346318 -0.945917708,31.83211 2.0149826,33.6370306 C4.97588291,35.4419513 7.88555668,35.7369797 7.88555685,34.7383367 C7.88555702,33.7396937 12.2993424,29.8218639 12.2993424,26.9353413 Z" id="path-11"></path>
        <path d="M12.2994374,26.9389703 C12.2994374,24.0524477 12.7941405,27.4600688 15.9404326,23.6246803 C19.0867246,19.7892918 22.18179,21.7217634 22.18179,18.5749508 C22.18179,15.4281382 25.0963425,19.9126962 27.1595568,13.7419569 C29.2227711,7.57121761 30.069195,9.70818524 30.069195,6.74523787 C30.069195,3.7822905 26.928305,2.17720027 24.1430389,3.46050246 C21.3577728,4.74380465 23.7961613,-0.866948131 20.3078704,1.66076832 C16.8195795,4.18848476 11.6705693,2.57593084 11.6705693,6.74523764 C11.6705693,10.9145444 10.2830589,9.11014279 8.70966897,12.3896934 C7.136279,15.669244 4.975978,14.7203782 4.975978,17.9657063 C4.975978,21.2110345 2.94008457,20.4586835 2.94008457,23.0154358 C2.94008457,25.5721881 0.349479588,24.9821294 2.01507763,28.3601951 C3.68067567,31.7382608 -0.945822679,31.835739 2.01507763,33.6406596 C4.97597794,35.4455803 7.88565171,35.7406087 7.88565188,34.7419657 C7.88565205,33.7433227 12.2994374,29.8254929 12.2994374,26.9389703 Z" id="path-13"></path>
        <path d="M12.2994857,26.9408115 C12.2994857,24.0542889 12.7941887,27.46191 15.9404808,23.6265215 C19.0867728,19.791133 22.1818382,21.7236047 22.1818382,18.5767921 C22.1818382,15.4299795 25.0963907,19.9145374 27.159605,13.7437981 C29.2228193,7.57305885 29.1585739,10.0611097 29.9024742,8.0552728 C30.6463745,6.04943592 26.9283533,2.17904151 24.1430871,3.4623437 C21.357821,4.74564589 23.7962095,-0.86510689 20.3079186,1.66260956 C16.8196277,4.190326 11.6706175,2.57777208 11.6706175,6.74707888 C11.6706175,10.9163857 10.2831071,9.11198403 8.70971718,12.3915346 C7.13632722,15.6710852 4.97602621,14.7222194 4.97602621,17.9675476 C4.97602621,21.2128758 2.94013278,20.4605247 2.94013278,23.017277 C2.94013278,25.5740293 0.349527803,24.9839706 2.01512584,28.3620363 C3.68072389,31.740102 -0.945774465,31.8375802 2.01512584,33.6425009 C4.97602615,35.4474216 7.88569993,35.74245 7.8857001,34.743807 C7.88570027,33.745164 12.2994857,29.8273341 12.2994857,26.9408115 Z" id="path-15"></path>
        <linearGradient x1="50%" y1="0%" x2="50%" y2="100%" id="linearGradient-17">
            <stop stop-color="#E6E6E6" offset="0%"></stop>
            <stop stop-color="#C7C7C7" offset="100%"></stop>
        </linearGradient>
        <path d="M36.4270073,0.0207868304 C42.3891131,0.0207868304 41.9232118,8.54398019 41.9232118,8.54398019 L42.7918247,13.3548479 C42.7918247,13.3548479 55.7106639,16.3571428 61.531026,16.3571429 C65.5827442,16.3571429 72.5667702,16.3571429 72.5667702,16.3571429 C72.5667702,16.3571429 73.0949977,27.7207261 64.1760956,27.7207261 L46.7398121,27.7207261 L43.8364871,70.1309046 L29.6647812,70.1309046 L26.0085594,27.7207261 L8.49174221,27.7207261 C-0.0950461589,27.7207261 0.283144264,16.3571429 0.283144264,16.3571429 C0.283144264,16.3571429 7.16454313,16.3571429 11.852568,16.3571429 C16.9060394,16.3571428 29.6647807,13.3548479 29.6647807,13.3548479 L30.5067614,7.94547544 C30.5067614,7.94547544 30.4649014,0.0207868304 36.4270073,0.0207868304 Z" id="path-18"></path>
        <path d="M4.14410856,22.4402823 C2.6205137,21.6162246 0.934806191,21.1457141 0.624070692,18.3762207 C0.234202332,14.9014395 0.983886702,8.43620983 2.83305503,9.40454108 C4.68222335,10.3728723 2.83352679,11.4682066 4.1441085,12.6872559 C5.2281058,13.6955458 6.13432479,11.4719239 5.80571151,9.87207038 C5.47709823,8.27221686 5.72392346,4.73754876 7.88212716,3.79492187 C10.0403309,2.85229499 10.6838855,6.50000006 12.4041004,5.63525397 C14.1243152,4.77050788 12.2908191,2.36621094 13.8003406,0.546386695 C15.3098621,-1.27343755 18.7227033,2.81543001 20.1580061,5.63525389 C21.5933088,8.45507777 19.8706525,11.0103402 21.1626447,11.7002769 C22.4546369,12.3902135 22.6745313,10.1616544 24.7324688,9.87207038 C26.7904064,9.58248632 27.6550081,12.3955847 27.7962942,15.6455599 C27.9063477,18.177099 26.4555178,21.4966207 25.016557,21.9706899 C21.7302667,23.0533665 14.062311,23.3053113 14.062311,23.3053113" id="path-20"></path>
        <path d="M0,0.169753086 C0,0.169753086 3.0307728,30.6822073 1.31832052,36.5456513 L8.35169012,36.5456513 C8.35169012,36.5456513 6.42679388,23.2660779 9.98424183,0.253883644 L0,0.169753086 Z" id="path-22"></path>
        <path d="M4.29711922,4.32958975 C5.93872054,4.32958983 3.68806043,5.82547699 5.97338851,6.75146483 C8.25871659,7.67745268 8.45007308,0.305297862 10.0151366,0.622314453 C11.5802,0.939331044 10.0218617,2.37301471 13.3880061,7.55943567 C16.7541504,12.7458566 12.2877059,15.6313796 11.3065962,15.9532785 C9.06594374,16.6884292 6.86066658,16.5406435 6.86066658,16.5406435 C6.86066658,16.5406435 2.44162814,16.8183066 1.61232686,15.2638392 C0.783025573,13.7093717 0.493718942,11.9035072 0.493718942,11.9035072 C0.493718922,8.7753424 2.6555179,4.32958967 4.29711922,4.32958975 Z" id="path-24"></path>
    </defs>
    <g id="Page-1" stroke="none" stroke-width="1" fill="none" fill-rule="evenodd">
        <g id="doodle" transform="translate(-49.000000, -133.000000)">
            <g id="Group-12" transform="translate(48.000000, 120.000000)">
                <g id="Group">
                    <g id="Group-6-Copy-3" transform="translate(178.837986, 37.621307) rotate(-30.000000) translate(-178.837986, -37.621307) translate(150.837986, 11.121307)">
                        <g id="Group-8" transform="translate(28.117085, 26.310691) rotate(-340.000000) translate(-28.117085, -26.310691) translate(6.117085, 6.810691)">
                            <path d="M3.00441374,28.1836048 C3.00441374,28.1836048 20.6516576,26.4195189 20.9479679,24.9225807 C21.2442782,23.4256425 13.4419825,24.2217267 10.7169429,19.9100261 C10.7169429,19.9100261 8.34463422,23.0631598 8.34463422,21.3184204 C8.34463422,19.5736811 9.38963527,18.841624 9.38963527,18.841624 C9.38963527,18.841624 5.25001859,20.7936411 6.31998274,19.4065216 C7.38994689,18.0194021 8.9565352,17.596742 8.9565352,17.596742 C8.9565352,17.596742 5.15726943,16.2714209 6.28710448,14.6875598 C7.41693953,13.1036987 9.03548362,16.1765959 9.03548362,16.1765959 C9.03548362,16.1765959 9.35127721,13.5770132 10.5367213,10.6680336 C11.7221654,7.75905405 8.49076022,1.46656467 11.4315378,0.300298279 C14.3723153,-0.865968109 17.6786107,5.99324245 17.255252,5.59368072 C16.8318934,5.194119 24.2146871,5.38235066 24.2146871,5.38235066 C24.2146871,5.38235066 22.0053487,2.65390308 23.4814203,2.01221352 C24.9574919,1.37052397 25.3173265,4.50055926 25.3173265,4.50055926 C25.3173265,4.50055926 25.1324374,-0.285874184 26.4739513,0.413561464 C27.8154653,1.11299711 27.2476052,4.47523207 27.2476052,4.47523207 C27.2476052,4.47523207 28.9317032,-0.143636593 29.9324603,1.65661989 C30.9332175,3.45687637 27.9559085,5.98351681 27.9559085,5.98351681 C27.9559085,5.98351681 34.8325394,5.6895187 35.3366724,6.0238377 C35.8408054,6.35815669 38.2157531,0.8838368 40.5022126,1.96378803 C42.7886722,3.04373927 39.9980796,10.4777761 39.4417872,11.4691833 C38.8854948,12.4605905 40.4577664,16.3247088 39.9497767,17.2391221 C39.4417869,18.1535354 43.3254815,14.1838522 43.0291709,16.5127383 C42.7328603,18.8416245 39.8054776,19.1354194 39.8054776,19.1354194 C39.8054776,19.1354194 43.5046883,20.2346189 42.4481186,21.3336168 C41.391549,22.4326146 39.1397943,20.6976004 39.1397943,20.6976004 C39.1397943,20.6976004 40.6428588,23.4663682 38.983927,23.2224172 C37.3249951,22.9784662 37.0690727,20.9897748 37.0690727,20.9897748 C37.0690727,20.9897748 34.2472245,25.2797959 29.3532343,24.4863457 C24.4592442,23.6928955 32.9964299,28.8116201 29.93246,32.9166509 C26.8684901,37.0216816 11.4315375,38.9557941 11.4315375,38.9557941 L0.0541772178,30.3945079" id="Path-171" fill="#FFDE00"></path>
                            <path d="M11.8739736,7.68408557 C11.3081427,5.72234284 11.2793236,2.99409807 12.2319813,2.99409807 C13.184639,2.99409807 16.5351775,5.47839136 15.3651579,6.24691958 C14.1951383,7.01544779 12.4398044,9.64582831 11.8739736,7.68408557 Z" id="Path-172" fill="#F67A1F"></path>
                            <path d="M36.5243489,6.86368728 C36.5243489,6.86368728 39.2207722,3.23055272 39.6325623,4.92889267 C40.0443524,6.62723263 39.8174518,9.10017948 39.1207168,9.10017935 C38.4239818,9.10017922 36.5243489,6.86368728 36.5243489,6.86368728 Z" id="Path-173" fill="#F67A1F"></path>
                            <path d="M19.528317,8.97151723 C22.2111426,8.97151723 24.112805,11.5097068 26.2200581,11.5097068 C28.3273111,11.5097068 28.8237323,9.24221423 31.7953589,9.51129028 C34.7669855,9.78036633 39.3052004,13.1036987 34.2665053,18.8244015 C32.4162908,20.92505 29.1952061,21.3305152 26.2200581,21.3956177 C21.0929758,21.5078091 15.8594423,19.2525183 15.4441063,16.7649971 C14.7877588,12.8340148 16.8454915,8.97151723 19.528317,8.97151723 Z" id="Path-174" fill="#FFFBCC"></path>
                            <path d="M20.2002919,14.1411004 C20.2002919,13.1098064 19.923654,12.2737774 19.5824038,12.2737774 C19.2411536,12.2737774 18.9645157,13.1098064 18.9645157,14.1411004 C18.9645157,15.1723944 19.2411536,16.0084234 19.5824038,16.0084234 C19.923654,16.0084234 20.2002919,15.1723944 20.2002919,14.1411004 Z" id="Oval-5" fill="#1F1B6F"></path>
                            <path d="M32.7047399,14.1411004 C32.7047399,13.1098064 32.428102,12.2737774 32.0868519,12.2737774 C31.7456017,12.2737774 31.4689638,13.1098064 31.4689638,14.1411004 C31.4689638,15.1723944 31.7456017,16.0084234 32.0868519,16.0084234 C32.428102,16.0084234 32.7047399,15.1723944 32.7047399,14.1411004 Z" id="Oval-5-Copy" fill="#1F1B6F"></path>
                            <path d="M18.9780522,19.3416228 C19.4371623,19.3416228 19.4255619,18.3066319 19.4255619,17.0299061 C19.4255619,15.7531802 19.4371623,14.7181895 18.9780522,14.7181895 C18.5189421,14.7181895 18.1467599,15.7531803 18.1467599,17.0299061 C18.1467599,18.306632 18.5189421,19.3416228 18.9780522,19.3416228 Z" id="Oval-5-Copy-2" fill="#FCB030" transform="translate(18.786174, 17.029906) rotate(-90.000000) translate(-18.786174, -17.029906) "></path>
                            <path d="M32.2738723,19.751734 C32.7329824,19.751734 32.7311237,18.7167431 32.7311237,17.4400172 C32.7311237,16.1632914 32.7329824,15.1283007 32.2738723,15.1283007 C31.8147622,15.1283007 31.4425799,16.1632915 31.4425799,17.4400173 C31.4425799,18.7167432 31.8147622,19.751734 32.2738723,19.751734 Z" id="Oval-5-Copy-3" fill="#FCB030" transform="translate(32.086852, 17.440017) rotate(-90.000000) translate(-32.086852, -17.440017) "></path>
                            <path d="M25.723231,15.0109373 C25.723231,15.0109373 25.0938761,13.6458019 25.723231,13.5362871 C26.0972774,13.4711989 26.3854568,14.1591878 26.7088793,14.2164741 C26.9296342,14.2555753 27.3916417,13.5324474 27.6965357,13.7207704 C28.4866287,14.2087848 27.3397455,15.1235927 27.3397455,15.1235927" id="Path-175" stroke="#1F1B6F" stroke-width="0.5"></path>
                            <path id="Path-177" stroke="#979797"></path>
                            <g id="Path-178" transform="translate(21.874039, 15.353544)">
                                <mask id="mask-2" fill="white">
                                    <use xlink:href="#path-1"></use>
                                </mask>
                                <use id="Mask" fill="#004B88" xlink:href="#path-1"></use>
                                <path d="M4.25529948,3.36144358 C5.92782883,4.27038581 5.12515275,4.31384724 5.12515275,4.31384724 C5.12515275,4.31384724 4.42364835,4.54624943 3.04906695,4.31384724 C1.67448554,4.08144506 0.780452813,3.01780432 0.780452813,3.01780432 C1.27075892,2.91738599 2.94080246,2.64707533 4.25529948,3.36144358 Z" fill="#F67A1F" mask="url(#mask-2)"></path>
                            </g>
                        </g>
                    </g>
                    <g id="Group-11" transform="translate(342.000000, 9.000000)">
                        <g id="Path-420-Copy-5" transform="translate(24.673394, 40.771470) scale(-1, 1) rotate(-330.000000) translate(-24.673394, -40.771470) translate(9.173394, 22.271470)">
                            <mask id="mask-4" fill="white">
                                <use xlink:href="#path-3"></use>
                            </mask>
                            <use id="Mask" fill="#4BE737" transform="translate(15.500000, 18.155042) rotate(-3.000000) translate(-15.500000, -18.155042) " xlink:href="#path-3"></use>
                            <path d="M4.33544922,36.1855469 C4.33544922,36.1855469 8.07226563,12.5800781 22.9912109,7.75976562" id="Path-420" stroke="#FFFFFF" stroke-linecap="round" stroke-linejoin="bevel" mask="url(#mask-4)"></path>
                        </g>
                        <g id="Path-420-Copy-6" transform="translate(24.688077, 53.395184) scale(-1, 1) rotate(-315.000000) translate(-24.688077, -53.395184) translate(8.688077, 34.895184)">
                            <mask id="mask-6" fill="white">
                                <use xlink:href="#path-5"></use>
                            </mask>
                            <use id="Mask" fill="#FFD872" transform="translate(15.815734, 18.138495) rotate(-3.000000) translate(-15.815734, -18.138495) " xlink:href="#path-5"></use>
                            <path d="M4.33544922,36.1855469 C4.33544922,36.1855469 8.07226562,12.5800781 22.9912109,7.75976563" id="Path-420" stroke="#FFFFFF" stroke-linecap="round" stroke-linejoin="bevel" mask="url(#mask-6)"></path>
                        </g>
                        <g id="Path-420-Copy-4" transform="translate(35.959304, 26.301572) rotate(-68.000000) translate(-35.959304, -26.301572) translate(20.459304, 7.801572)">
                            <mask id="mask-8" fill="white">
                                <use xlink:href="#path-7"></use>
                            </mask>
                            <use id="Mask" fill="#FFD872" transform="translate(15.153025, 18.173226) rotate(-3.000000) translate(-15.153025, -18.173226) " xlink:href="#path-7"></use>
                            <path d="M4.33544922,36.1855469 C4.33544922,36.1855469 8.07226562,12.5800781 22.9912109,7.75976562" id="Path-420" stroke="#FFFFFF" stroke-linecap="round" stroke-linejoin="bevel" mask="url(#mask-8)"></path>
                        </g>
                        <g id="Path-420-Copy-3" transform="translate(51.041631, 24.041631) rotate(-45.000000) translate(-51.041631, -24.041631) translate(35.541631, 5.541631)">
                            <mask id="mask-10" fill="white">
                                <use xlink:href="#path-9"></use>
                            </mask>
                            <use id="Mask" fill="#4BE737" transform="translate(15.333177, 18.163785) rotate(-3.000000) translate(-15.333177, -18.163785) " xlink:href="#path-9"></use>
                            <path d="M4.33544922,36.1855469 C4.33544922,36.1855469 8.07226562,12.5800781 22.9912109,7.75976563" id="Path-420" stroke="#FFFFFF" stroke-linecap="round" stroke-linejoin="bevel" mask="url(#mask-10)"></path>
                        </g>
                        <g id="Path-420" transform="translate(48.000000, 9.000000)">
                            <mask id="mask-12" fill="white">
                                <use xlink:href="#path-11"></use>
                            </mask>
                            <use id="Mask" fill="#FFD872" transform="translate(15.603819, 18.149601) rotate(-3.000000) translate(-15.603819, -18.149601) " xlink:href="#path-11"></use>
                            <path d="M4.33544922,36.1855469 C4.33544922,36.1855469 8.07226562,12.5800781 22.9912109,7.75976562" stroke="#FFFFFF" stroke-linecap="round" stroke-linejoin="bevel" mask="url(#mask-12)"></path>
                        </g>
                        <g id="Path-420-Copy" transform="translate(74.673394, 36.771470) rotate(-330.000000) translate(-74.673394, -36.771470) translate(59.173394, 18.271470)">
                            <mask id="mask-14" fill="white">
                                <use xlink:href="#path-13"></use>
                            </mask>
                            <use id="Mask" fill="#4BE737" transform="translate(15.534574, 18.153230) rotate(-3.000000) translate(-15.534574, -18.153230) " xlink:href="#path-13"></use>
                            <path d="M4.33544922,36.1855469 C4.33544922,36.1855469 8.07226563,12.5800781 22.9912109,7.75976562" id="Path-420" stroke="#FFFFFF" stroke-linecap="round" stroke-linejoin="bevel" mask="url(#mask-14)"></path>
                        </g>
                        <g id="Path-420-Copy-2" transform="translate(81.771470, 50.673394) rotate(-300.000000) translate(-81.771470, -50.673394) translate(66.271470, 32.173394)">
                            <mask id="mask-16" fill="white">
                                <use xlink:href="#path-15"></use>
                            </mask>
                            <use id="Mask" fill="#FFD872" transform="translate(15.499441, 18.155071) rotate(-3.000000) translate(-15.499441, -18.155071) " xlink:href="#path-15"></use>
                            <path d="M4.33544922,36.1855469 C4.33544922,36.1855469 8.07226562,12.5800781 22.9912109,7.75976563" id="Path-420" stroke="#FFFFFF" stroke-linecap="round" stroke-linejoin="bevel" mask="url(#mask-16)"></path>
                        </g>
                    </g>
                    <ellipse id="Oval-21" fill-opacity="0.406674592" fill="#000000" transform="translate(47.532392, 83.287660) rotate(-1.000000) translate(-47.532392, -83.287660) " cx="47.5323918" cy="83.2876601" rx="16.5" ry="2"></ellipse>
                    <ellipse id="Oval-21-Copy" fill-opacity="0.406674592" fill="#000000" transform="translate(85.532392, 83.287660) rotate(-1.000000) translate(-85.532392, -83.287660) " cx="85.5323918" cy="83.2876601" rx="16.5" ry="2"></ellipse>
                    <ellipse id="Oval-21-Copy-2" fill-opacity="0.406674592" fill="#000000" transform="translate(126.532392, 83.287660) rotate(-1.000000) translate(-126.532392, -83.287660) " cx="126.532392" cy="83.2876601" rx="16.5" ry="2"></ellipse>
                    <ellipse id="Oval-21-Copy-4" fill-opacity="0.406674592" fill="#000000" transform="translate(219.500000, 83.287660) rotate(-1.000000) translate(-219.500000, -83.287660) " cx="219.5" cy="83.2876601" rx="16.5" ry="2"></ellipse>
                    <ellipse id="Oval-21-Copy-5" fill-opacity="0.406674592" fill="#000000" transform="translate(253.508464, 82.322988) rotate(-1.000000) translate(-253.508464, -82.322988) " cx="253.508464" cy="82.3229879" rx="8.51898395" ry="2"></ellipse>
                    <ellipse id="Oval-21-Copy-6" fill-opacity="0.406674592" fill="#000000" transform="translate(283.554455, 83.235680) rotate(-1.000000) translate(-283.554455, -83.235680) " cx="283.554455" cy="83.23568" rx="13.5216098" ry="2"></ellipse>
                    <ellipse id="Oval-21-Copy-7" fill-opacity="0.406674592" fill="#000000" transform="translate(314.518984, 82.323574) rotate(-1.000000) translate(-314.518984, -82.323574) " cx="314.518984" cy="82.3235745" rx="8.4853715" ry="2"></ellipse>
                    <ellipse id="Oval-21-Copy-8" fill-opacity="0.406674592" fill="#000000" transform="translate(358.059860, 83.225620) rotate(-1.000000) translate(-358.059860, -83.225620) " cx="358.05986" cy="83.2256198" rx="12.9451749" ry="2"></ellipse>
                    <ellipse id="Oval-21-Copy-9" fill-opacity="0.406674592" fill="#000000" transform="translate(394.069827, 82.442058) rotate(-1.000000) translate(-394.069827, -82.442058) " cx="394.069827" cy="82.4420578" rx="20" ry="2"></ellipse>
                    <ellipse id="Oval-21-Copy-3" fill-opacity="0.406674592" fill="#000000" transform="translate(174.018972, 83.374865) rotate(-1.000000) translate(-174.018972, -83.374865) " cx="174.018972" cy="83.374865" rx="27.9833087" ry="2.2876601"></ellipse>
                    <path d="M231.220464,66.458211 C231.220464,71.1857314 227.389498,75.0179649 222.66071,75.0179649 C217.933189,75.0179649 214.100956,71.181293 214.100956,66.4550407 L214.100956,63.9232558 C214.100956,59.1951013 217.932555,55.3622338 222.66071,55.3622338 C227.38823,55.3622338 231.220464,59.1893948 231.220464,63.926426 L231.220464,66.458211 Z M224.245849,46.4854519 C220.386351,46.4854519 216.637179,48.0014795 214.100956,50.5218514 L214.100956,30 L203.956062,30.6340558 L203.956062,82.8377756 L214.100956,82.8377756 L214.100956,79.8564451 C216.637179,82.3774511 220.386985,83.8947467 224.245849,83.8947467 C233.00216,83.8947467 240.097245,76.0901533 240.097245,66.4632835 L240.097245,63.9169152 C240.097245,54.2932156 233.000258,46.4854519 224.245849,46.4854519 L224.245849,46.4854519 Z M289.181998,75.1416293 C288.023577,75.3445272 286.900031,75.4459761 285.809454,75.4459761 C283.538901,75.4459761 282.025409,74.8144565 281.275955,73.5514172 C280.526501,72.2877439 280.148604,70.5954489 280.148604,68.4751661 L280.148604,56.2328159 L292.829721,56.2328159 L292.829721,47.3560341 L280.148604,47.3560341 L280.148604,37 L270.00371,37.7095085 L270.00371,68.61022 C270.00371,70.9112087 270.219289,73.0099335 270.651081,74.9044924 C271.082239,76.7996853 271.843106,78.4127234 272.933048,79.7442407 C274.02299,81.0751239 275.47688,82.1130733 277.29345,82.8574549 C279.11002,83.6018364 281.404034,83.9740272 284.174224,83.9740272 C286.354743,83.9740272 288.194139,83.7933213 289.693047,83.4325435 C291.191955,83.0717657 293.047202,82.5499378 294.273466,82.053472 L292.195665,74.321161 C291.242045,74.6819388 290.340418,74.9387314 289.181998,75.1416293 L289.181998,75.1416293 Z M408.438391,55.515528 C407.906418,53.5011326 406.966113,51.8614642 405.902168,50.4430813 C404.702534,48.8439924 401.203814,45.8658321 395.757274,46.0046904 C393.461992,46.0630235 390.684827,47.476968 388.148604,49.8090254 L388.148604,46.8498868 L378.00371,46.8498868 L378.00371,82.3570141 L388.148604,82.3570141 L388.148604,59.9539189 C388.148604,57.0220447 390.870606,55.4984085 393.221051,55.515528 C396.473123,55.5389881 398.927553,57.808908 398.927553,60.5879748 L398.927553,82.3570141 L409.072447,82.3570141 L409.072447,62.4901423 C409.072447,59.7573616 408.970364,57.5299234 408.438391,55.515528 L408.438391,55.515528 Z M76.5108377,61.9139328 C76.5108377,57.4755419 79.9163516,54.3052627 84.1195078,54.3052627 C88.3213959,54.3052627 91.7281779,57.4755419 91.7281779,61.9139328 L76.5108377,61.9139328 Z M84.1195078,46.4854519 C73.7305028,46.4854519 67,53.8424019 67,65.5071273 C67,76.8332668 73.6975319,84 84.7535636,84 C93.398281,84 99.8992556,79.0334406 101.239016,72.6928821 L91.7281779,72.6928821 C90.798652,73.9609938 88.4171383,76.4312754 84.7535636,76.4312754 C79.9524928,76.4312754 76.5108377,72.9591856 76.5108377,68.6774065 L76.5108377,68.2544912 L101.239016,68.2544912 L101.239016,64.2390156 C101.239016,53.4480192 94.6397623,46.4854519 84.1195078,46.4854519 L84.1195078,46.4854519 Z M186.202499,46.4854519 C182.457765,46.5926074 178.517742,49.0387948 176.057605,52.8260104 C175.492661,51.9541836 175.259329,51.5927718 174.789493,50.9238428 C173.685602,49.3532865 170.119038,46.3465937 165.278656,46.4854519 C162.365803,46.5640749 159.572153,48.0052838 157.03593,50.289787 L157.03593,47.3306484 L146.891036,47.3306484 L146.891036,82.8377756 L157.03593,82.8377756 L157.03593,61.0687364 C157.03593,58.3270789 159.453585,56.0070685 162.742432,55.9962896 C165.403565,55.9874128 167.814879,58.3296151 167.814879,61.0687364 L167.814879,82.8377756 L177.959773,82.8377756 L177.959773,61.0687364 C177.959773,58.3270789 180.377428,56.0070685 183.666275,55.9962896 C186.327408,55.9874128 188.738722,58.3296151 188.738722,61.0687364 L188.738722,82.8377756 L198.883616,82.8377756 L198.883616,62.9709039 C198.883616,60.2850433 198.742221,58.0182937 198.24956,55.9962896 C197.747387,53.9356081 196.781086,52.4221168 195.713336,50.9238428 C194.645586,49.4249348 191.042881,46.3465937 186.202499,46.4854519 L186.202499,46.4854519 Z M365.123218,66.0959773 C365.123218,70.8234976 361.212362,74.6557312 356.484207,74.6557312 C351.756687,74.6557312 348.00371,70.8190592 348.00371,66.092807 L348.00371,63.561022 C348.00371,58.8328676 351.755419,55 356.484207,55 C361.211728,55 365.123218,58.8271611 365.123218,63.5641923 L365.123218,66.0959773 Z M356.440246,46 C346.808304,46 339.00371,53.8039593 339.00371,63.4314633 L339.00371,65.9778315 C339.00371,75.6008971 346.810206,83.4092948 356.440246,83.4092948 C366.072188,83.4092948 373.876782,75.6047014 373.876782,65.9778315 L373.876782,63.4314633 C373.876782,53.8077637 366.070286,46 356.440246,46 L356.440246,46 Z M131.03964,47.3306484 L131.03964,50.5212174 C128.503417,48.0014795 124.754245,46.4854519 120.894747,46.4854519 C112.140338,46.4854519 105.043351,54.2932156 105.043351,63.9169152 L105.043351,66.4632835 C105.043351,76.0901533 112.138436,83.8947467 120.894747,83.8947467 C124.753611,83.8947467 128.503417,82.3774511 131.03964,79.8564451 L131.03964,82.8377756 L141.184534,82.8377756 L141.184534,47.3306484 L131.03964,47.3306484 Z M131.03964,66.4550407 C131.03964,71.181293 127.207407,75.0179649 122.479886,75.0179649 C117.751098,75.0179649 113.920132,71.1857314 113.920132,66.458211 L113.920132,63.926426 C113.920132,59.1893948 117.752366,55.3622338 122.479886,55.3622338 C127.208041,55.3622338 131.03964,59.1951013 131.03964,63.9232558 L131.03964,66.4550407 Z" id="logo" fill="#3DA8F5"></path>
                    <g id="Group-6" transform="translate(0.000000, 13.000000)">
                        <path d="M0.962158203,17.6057129 C0.962158203,18.5246537 3.94819866,19.9091797 8.14570492,19.9091797 C12.3432112,19.9091797 13.0188517,20.0523158 13.0188517,20.0523158 L12.7804313,17.0971819 L8.14570492,17.0971819 C8.14570492,17.0971819 0.962158203,16.6867721 0.962158203,17.6057129 Z" id="Path-406" fill="#D8D8D8"></path>
                        <path d="M82.1232877,17.7768555 C82.1232877,18.6957963 85.026515,19.9091797 89.2240212,19.9091797 C93.4215275,19.9091797 94.097168,20.0523158 94.097168,20.0523158 L93.8587476,17.0971819 L89.2240212,17.0971819 C89.2240212,17.0971819 82.1232877,16.8579147 82.1232877,17.7768555 Z" id="Path-406-Copy" fill="#D8D8D8" transform="translate(88.110228, 18.560721) scale(-1, 1) translate(-88.110228, -18.560721) "></path>
                        <g id="Group-4" transform="translate(11.013699, 0.000000)">
                            <mask id="mask-19" fill="white">
                                <use xlink:href="#path-18"></use>
                            </mask>
                            <use id="Path-407" fill="url(#linearGradient-17)" xlink:href="#path-18"></use>
                            <path d="M30.0260863,48.8794992 L31.3140719,71.4633092" id="Path-411" stroke="#BBBBBB" mask="url(#mask-19)"></path>
                            <path d="M32.4794521,49.1428571 L33.7674377,71.7266671" id="Path-411-Copy" stroke="#BBBBBB" mask="url(#mask-19)"></path>
                            <path d="M35.0962705,49.1428571 L36.3842561,71.7266671" id="Path-411-Copy-2" stroke="#BBBBBB" mask="url(#mask-19)"></path>
                            <path d="M37.5677772,49.1428571 L38.8557628,71.7266671" id="Path-411-Copy-3" stroke="#BBBBBB" mask="url(#mask-19)"></path>
                            <path d="M40.252437,49.1428571 L41.5404226,71.7266671" id="Path-411-Copy-4" stroke="#BBBBBB" mask="url(#mask-19)"></path>
                            <path d="M42.7058028,49.1428571 L43.9937884,71.7266671" id="Path-411-Copy-5" stroke="#BBBBBB" mask="url(#mask-19)"></path>
                            <path d="M26.0558714,22.1365792 L25.6176356,37.1837681 L26.7685547,48.8700823 C26.7685547,48.8700823 45.3948322,58.3920898 48.3373622,54.1802455 C51.2798922,49.9684012 47.7947547,49.4090402 47.7947547,49.4090402 L46.4206309,23.6401367 L44.6111007,21.3182547 C44.6111007,21.3182547 32.6441834,22.3302525 32.2449299,22.3302525 C31.8456764,22.3302525 26.0558714,22.1365792 26.0558714,22.1365792 Z" id="Path-410" fill="#E2E2E2" mask="url(#mask-19)"></path>
                            <path d="M-0.813681687,16.3571429 C-0.813681687,16.3571429 8.54352251,23.2915043 26.1404377,22.640695 C26.1404377,22.640695 35.6267452,28.5350165 44.3199914,23.2940149 C44.3199914,23.2940149 41.5141089,45.5228097 39.1011924,47.3881836 C39.1011932,47.3881844 46.4009302,47.4379883 46.4009302,47.4379883 L46.7912748,22.6406948 C46.7912748,22.6406948 56.1819394,22.5595863 60.0424053,21.6283831 C64.8651273,20.465069 72.8408387,16.3571429 72.8408387,16.3571429 L43.3496256,13.3010603 C43.3496256,13.3010603 38.6144196,15.3030831 36.0135785,15.3030831 C33.8696956,15.3030831 29.1154537,13.3010603 29.1154537,13.3010603 L-0.813681687,16.3571429 Z" id="Path-409" fill="#EFEFEF" mask="url(#mask-19)"></path>
                            <path d="M40.2522583,8.6291792 C40.2522583,6.58389233 40.2878203,4.56332513 39.3556666,3.42592078 C38.7178992,2.64772365 37.3897402,2.39209726 36.3424658,2.39209726 C35.0828102,2.39209726 33.6850439,2.71132989 33.0832994,3.79506133 C32.4535385,4.92925007 32.5179313,6.86767401 32.5179313,8.6291792 C32.5179313,12.0738245 34.6672355,14.8662617 36.3424658,14.8662614 C38.017696,14.8662611 40.2522583,12.0738245 40.2522583,8.6291792 Z" id="Oval-17" fill="#F6F6F6" mask="url(#mask-19)"></path>
                        </g>
                        <path d="M44.115216,7.5206822 C44.115216,7.5206822 44.0517913,6.42448207 44.115216,6.42448207 C45.058256,6.42448207 47.0241081,6.12212263 47.0241081,6.12212263 C47.0241081,6.12212263 47.3996264,10.6494838 47.3996264,11.0870013 C47.3996264,11.1270972 46.6925093,10.822433 46.6505545,10.3801095 C46.5684108,9.51408049 46.6505545,7.68775286 46.6505545,7.68775286 L44.115216,7.5206822 Z" id="Path-417" fill="#D8D8D8"></path>
                        <polyline id="Path-418" fill="#D8D8D8" points="45.6925818 12.3985334 46.9037818 11.7325265 48.4256609 11.7622681 49.4087048 12.3985334"></polyline>
                        <polygon id="Path-419" fill="#D8D8D8" points="48.0008645 6.14911761 48.0008645 7.56753104 50.4916407 7.30998012 50.4916407 6.41255406"></polygon>
                    </g>
                    <g id="Group-9" transform="translate(295.000000, 40.000000)">
                        <path d="M-1.31106619e-13,21.7666667 C-1.31106619e-13,21.7666667 -0.153729839,29.2037649 19.0303679,29.2037649 C38.2144657,29.2037649 39.4569052,21.7666667 39.4569052,21.7666667" id="Path-432" fill="#F5DEC1"></path>
                        <ellipse id="Oval-17" fill="#EBC486" cx="19.6774194" cy="21.7776956" rx="19.6774194" ry="2.61863128"></ellipse>
                        <g id="Group-7" transform="translate(5.451613, 0.000000)">
                            <mask id="mask-21" fill="white">
                                <use xlink:href="#path-20"></use>
                            </mask>
                            <use id="Path-433" fill="#F68540" xlink:href="#path-20"></use>
                            <path d="M8.88936492,15.5801172 C10.2270981,14.8303223 10.8941532,18.769193 12.5130419,18.769193 C14.1319305,18.769193 12.6127224,13.1244412 14.702747,12.7110243 C16.7927716,12.2976074 21.1373488,16.4662806 17.8094759,23.2241105 C14.4816029,29.9819404 11.0073714,24.5310059 9.42710431,22.4962701 C7.84683724,20.4615343 7.55163171,16.3299122 8.88936492,15.5801172 Z" id="Path-434" fill="#F4DEC1" mask="url(#mask-21)"></path>
                        </g>
                        <rect id="Rectangle-35" fill="#F4DEC1" x="13.9534884" y="27.7555556" width="10.3225806" height="13.725731"></rect>
                        <ellipse id="Oval-18" fill="#F4DEC1" cx="19.1147787" cy="41.2520468" rx="5.16129032" ry="1.51871345"></ellipse>
                    </g>
                    <path d="M191.240376,52.3721013 L192.842156,49.5277057 C192.842156,49.5277057 199.810175,51.2589111 202.080634,51.0863388 C210.894434,50.4164226 208.336117,40.8974285 203.581661,41.3632779 C198.827206,41.8291273 198.98158,45.2001801 200.113888,45.8647713 C201.246197,46.5293626 201.555,45.0038431 202.666145,45.2726685 C203.77729,45.5414938 203.957989,47.7381319 201.228779,48.3465533 C198.49957,48.9549746 195.050168,46.3093209 197.888806,41.8974931 C200.727444,37.4856654 206.160665,38.8309946 208.373797,40.9836587 C210.586929,43.1363227 211.57991,49.5647697 205.71431,52.7786498 C203.840556,53.805317 191.240376,52.3721013 191.240376,52.3721013 Z" id="Path-181" fill="#60BB46" transform="translate(200.673501, 46.062662) rotate(-45.000000) translate(-200.673501, -46.062662) "></path>
                </g>
                <g id="Group-10" transform="translate(246.000000, 30.000000)">
                    <g id="Group-2" transform="translate(2.045455, 15.654321)">
                        <g id="Group-3" transform="translate(0.000000, 0.679012)">
                            <mask id="mask-23" fill="white">
                                <use xlink:href="#path-22"></use>
                            </mask>
                            <use id="Path-430" fill="#EBEBEB" xlink:href="#path-22"></use>
                            <path d="M0.700961026,4.1263966 C0.700961026,4.1263966 3.18403764,3.60304658 4.37422319,5.86669729 C5.56440874,8.13034799 7.14127974,4.91084148 7.88951527,5.70788532 C8.6377508,6.50492915 9.62751909,4.78352671 9.62751909,4.78352671 L11.0703902,6.46099886 L9.70176003,8.88346161 L9.40063477,6.46099891 C9.40063477,6.46099891 8.26571378,6.46249083 7.28393555,7.03789417 C6.30215732,7.6132975 5.81617876,6.47193998 5.194286,7.52046373 C4.57239324,8.56898748 3.40992321,6.46580627 2.05544212,6.08684582 C0.700961026,5.70788537 -0.650190874,5.85575617 -0.650190874,5.85575617 L-0.681818182,4.08395833 L0.700961026,4.1263966 Z" id="Path-433" fill="#5F7DAB" mask="url(#mask-23)"></path>
                            <path d="M0.467917702,8.97443041 C0.467917702,8.97443041 2.44262695,9.51110463 4.1916171,10.3828506 C5.94060724,11.2545965 7.18772195,6.95115266 7.93595748,7.7481965 C8.684193,8.54524034 10.1047585,7.4691358 10.1047585,7.4691358 L11.0703902,9.84617634 L9.70176003,12.2686391 L9.70176003,8.97443046 C9.70176003,8.97443046 9.20654297,8.66553036 8.22476474,9.24093369 C7.24298651,9.81633703 6.55317827,9.61730392 5.93128551,10.6658277 C5.30939276,11.7143514 3.33767978,11.0447881 1.98319869,10.6658277 C0.628717596,10.2868672 -0.650190874,9.24093364 -0.650190874,9.24093364 L-0.681818182,7.4691358 L0.467917702,8.97443041 Z" id="Path-433-Copy" fill="#5F7DAB" mask="url(#mask-23)"></path>
                            <path d="M0.733587092,10.0439453 C0.733587092,10.0439453 2.55365545,11.9820771 4.3026456,12.8538231 C6.05163574,13.725569 7.18772195,10.3462144 7.93595748,11.1432582 C8.684193,11.9403021 10.1047585,10.8641975 10.1047585,10.8641975 L11.0703902,13.2412381 L9.70176003,15.6637008 L9.70176003,12.3694922 C9.70176003,12.3694922 9.20654297,12.0605921 8.22476474,12.6359954 C7.24298651,13.2113988 6.55317827,13.0123656 5.93128551,14.0608894 C5.30939276,15.1094132 2.82531738,12.7484526 1.47083629,12.3694921 C0.116355202,11.9905317 -0.650190874,12.6359954 -0.650190874,12.6359954 L-0.681818182,10.8641975 L0.733587092,10.0439453 Z" id="Path-433-Copy-2" fill="#5F7DAB" mask="url(#mask-23)" transform="translate(5.194286, 12.853823) scale(-1, 1) translate(-5.194286, -12.853823) "></path>
                            <path d="M0.733587092,12.9012346 C0.733587092,12.9012346 1.67458274,14.6215387 3.42357289,15.4932846 C5.17256303,16.3650305 5.74085582,14.4297376 6.48909135,15.2267814 C7.23732688,16.0238252 10.1047585,13.7214868 10.1047585,13.7214868 L11.0703902,16.0985273 L9.70176003,18.5209901 L9.70176003,15.2267814 C9.70176003,15.2267814 9.20654297,14.9178813 8.22476474,15.4932847 C7.24298651,16.068688 6.0123513,15.3409378 5.39045854,16.3894616 C4.76856578,17.4379853 3.73618386,16.4774878 2.38170277,16.0985273 C1.02722168,15.7195669 -0.650190874,15.4932846 -0.650190874,15.4932846 L-0.681818182,13.7214868 L0.733587092,12.9012346 Z" id="Path-433-Copy-3" fill="#5F7DAB" mask="url(#mask-23)" transform="translate(5.194286, 15.711112) scale(-1, 1) translate(-5.194286, -15.711112) "></path>
                            <path d="M0.733587092,14.9382716 C0.733587092,14.9382716 2.02181729,17.2638184 3.77080744,18.1355644 C5.51979759,19.0073103 6.31847035,16.9511055 7.06670588,17.7481494 C7.81494141,18.5451932 10.1047585,15.7585238 10.1047585,15.7585238 L11.0703902,18.1355644 L9.70176003,20.5580271 L9.70176003,17.2638185 C9.70176003,17.2638185 8.69101784,17.560161 7.70923961,18.1355644 C6.72746138,18.7109677 6.0123513,17.3779748 5.39045854,18.4264986 C4.76856578,19.4750224 3.47567472,17.9092821 2.12119363,17.5303217 C2.03336924,17.5057499 2.21118806,17.7714173 2.12119363,17.7481494 C0.823239162,17.4125655 -0.650190874,17.5303217 -0.650190874,17.5303217 L-0.681818182,15.7585238 L0.733587092,14.9382716 Z" id="Path-433-Copy-4" fill="#5F7DAB" mask="url(#mask-23)" transform="translate(5.194286, 17.748149) scale(-1, 1) translate(-5.194286, -17.748149) "></path>
                        </g>
                        <path d="M5.16539487,1.69753086 C8.10725256,1.69753086 10.0387573,1.4383338 10.0387573,0.969573598 C10.0387573,0.500813394 8.10725256,0 5.16539487,0 C2.22353718,0 1.47845751e-18,0.380005228 1.47845751e-18,0.848765432 C1.47845751e-18,1.31752564 2.22353718,1.69753086 5.16539487,1.69753086 Z" id="Oval-132" fill="#CEB2A3"></path>
                    </g>
                    <g id="Group-7">
                        <mask id="mask-25" fill="white">
                            <use xlink:href="#path-24"></use>
                        </mask>
                        <use id="Path-433" fill="#F68540" xlink:href="#path-24"></use>
                        <path d="M3.91504066,10.8024596 C4.82466559,10.6761346 5.28194178,12.9678814 6.3857295,12.9678814 C7.48951722,12.9678814 7.03491616,9.15060292 7.87871028,8.85431007 C8.72250439,8.55801722 12.2659388,11.4041755 9.99693448,15.9928254 C7.72793017,20.5814754 5.77498186,17.6991411 4.30668765,16.2322796 C2.83839344,14.7654181 3.00541573,10.9287846 3.91504066,10.8024596 Z" id="Path-434" fill="#F4DEC1" mask="url(#mask-25)" transform="translate(6.980615, 13.657646) rotate(-345.000000) translate(-6.980615, -13.657646) "></path>
                    </g>
                </g>
            </g>
        </g>
    </g>
</svg>