<?xml version="1.0" encoding="UTF-8" standalone="no"?>
<svg width="530px" height="86px" viewBox="0 0 530 86" version="1.1" xmlns="http://www.w3.org/2000/svg" xmlns:xlink="http://www.w3.org/1999/xlink">
    <!-- Generator: Sketch 39 (31667) - http://www.bohemiancoding.com/sketch -->
    <title>logo</title>
    <desc>Created with Sketch.</desc>
    <defs></defs>
    <g id="Page-1" stroke="none" stroke-width="1" fill="none" fill-rule="evenodd">
        <g id="logo" transform="translate(-107.000000, -297.000000)" fill="#FFFFFF">
            <g id="Page-1" transform="translate(100.000000, 100.000000)">
                <g id="logo" transform="translate(7.000000, 197.833000)">
                    <path d="M330,1 C327.573,1 325.466,1.801 323.68,3.403 C321.893,5.006 321,7.205 321,10 C321,12.795 321.893,14.994 323.68,16.597 C325.466,18.199 327.573,19 330,19 C332.427,19 334.534,18.199 336.32,16.597 C338.107,14.994 339,12.795 339,10 C339,7.205 338.107,5.006 336.32,3.403 C334.534,1.801 332.427,1 330,1 L330,1 Z M322,83.334 L338,83.334 L338,27.334 L322,27.334 L322,83.334 Z M394,83.334 L410,83.334 L410,27.334 L394,27.334 L394,83.334 Z M300,57.5 C300,64.956 293.958,71 286.5,71 C279.044,71 273,64.949 273,57.495 L273,53.502 C273,46.045 279.043,40 286.5,40 C293.956,40 300,46.036 300,53.507 L300,57.5 Z M289,26 C282.913,26 277,28.391 273,32.366 L273,0 L257,1 L257,83.333 L273,83.333 L273,78.631 C277,82.607 282.914,85 289,85 C302.81,85 314,72.691 314,57.508 L314,53.492 C314,38.314 302.807,26 289,26 L289,26 Z M378.247,71.155 C376.42,71.475 374.648,71.635 372.928,71.635 C369.347,71.635 366.96,70.639 365.778,68.647 C364.596,66.654 364,63.985 364,60.641 L364,41.333 L384,41.333 L384,27.333 L364,27.333 L364,11 L348,12.119 L348,60.854 C348,64.483 348.34,67.793 349.021,70.781 C349.701,73.77 350.901,76.314 352.62,78.414 C354.339,80.513 356.632,82.15 359.497,83.324 C362.362,84.498 365.98,85.085 370.349,85.085 C373.788,85.085 376.689,84.8 379.053,84.231 C381.417,83.662 384.343,82.839 386.277,82.056 L383,69.861 C381.496,70.43 380.074,70.835 378.247,71.155 L378.247,71.155 Z M30.247,70.955 C28.42,71.275 26.647,71.435 24.928,71.435 C21.347,71.435 18.96,70.439 17.778,68.447 C16.596,66.454 16,63.785 16,60.441 L16,41.333 L36,41.333 L36,27.333 L16,27.333 L16,10.8 L0,11.919 L0,60.654 C0,64.283 0.34,67.593 1.021,70.581 C1.701,73.57 2.901,76.114 4.62,78.214 C6.339,80.313 8.632,81.95 11.497,83.124 C14.362,84.298 17.98,84.885 22.349,84.885 C25.788,84.885 28.689,84.6 31.053,84.031 C33.417,83.462 36.343,82.639 38.277,81.856 L35,69.661 C33.496,70.23 32.074,70.635 30.247,70.955 L30.247,70.955 Z M529,41 C528.161,37.823 526.678,35.237 525,33 C523.108,30.478 517.59,25.781 509,26 C505.38,26.092 501,28.322 497,32 L497,27.333 L481,27.333 L481,83.333 L497,83.333 L497,48 C497,43.376 501.293,40.973 505,41 C510.129,41.037 514,44.617 514,49 L514,83.333 L530,83.333 L530,52 C530,47.69 529.839,44.177 529,41 L529,41 Z M56,50.333 C56,43.333 61.371,38.333 68,38.333 C74.627,38.333 80,43.333 80,50.333 L56,50.333 Z M68,26 C51.615,26 41,37.603 41,56 C41,73.863 51.563,85.166 69,85.166 C82.634,85.166 92.887,77.333 95,67.333 L80,67.333 C78.534,69.333 74.778,73.229 69,73.229 C61.428,73.229 56,67.753 56,61 L56,60.333 L95,60.333 L95,54 C95,36.981 84.592,26 68,26 L68,26 Z M229,26 C223.094,26.169 216.88,30.027 213,36 C212.109,34.625 211.741,34.055 211,33 C209.259,30.523 203.634,25.781 196,26 C191.406,26.124 187,28.397 183,32 L183,27.333 L167,27.333 L167,83.333 L183,83.333 L183,49 C183,44.676 186.813,41.017 192,41 C196.197,40.986 200,44.68 200,49 L200,83.333 L216,83.333 L216,49 C216,44.676 219.813,41.017 225,41 C229.197,40.986 233,44.68 233,49 L233,83.333 L249,83.333 L249,52 C249,47.764 248.777,44.189 248,41 C247.208,37.75 245.684,35.363 244,33 C242.316,30.636 236.634,25.781 229,26 L229,26 Z M402,1 C399.573,1 397.466,1.801 395.68,3.403 C393.893,5.006 393,7.205 393,10 C393,12.795 393.893,14.994 395.68,16.597 C397.466,18.199 399.573,19 402,19 C404.427,19 406.534,18.199 408.32,16.597 C410.107,14.994 411,12.795 411,10 C411,7.205 410.107,5.006 408.32,3.403 C406.534,1.801 404.427,1 402,1 L402,1 Z M459,57.5 C459,64.956 452.832,71 445.375,71 C437.919,71 432,64.949 432,57.495 L432,53.502 C432,46.045 437.917,40 445.375,40 C452.831,40 459,46.036 459,53.507 L459,57.5 Z M445.5,26 C430.309,26 418,38.308 418,53.492 L418,57.508 C418,72.685 430.312,85 445.5,85 C460.691,85 473,72.691 473,57.508 L473,53.492 C473,38.314 460.688,26 445.5,26 L445.5,26 Z M142,27.333 L142,32.365 C138,28.391 132.087,26 126,26 C112.193,26 101,38.314 101,53.492 L101,57.508 C101,72.691 112.19,85 126,85 C132.086,85 138,82.607 142,78.631 L142,83.333 L158,83.333 L158,27.333 L142,27.333 Z M142,57.495 C142,64.949 135.956,71 128.5,71 C121.042,71 115,64.956 115,57.5 L115,53.507 C115,46.036 121.044,40 128.5,40 C135.957,40 142,46.045 142,53.502 L142,57.495 Z"></path>
                </g>
            </g>
        </g>
    </g>
</svg>