<?xml version="1.0" encoding="UTF-8" standalone="no"?>
<svg width="100px" height="100px" viewBox="0 0 100 100" version="1.1" xmlns="http://www.w3.org/2000/svg" xmlns:xlink="http://www.w3.org/1999/xlink">
    <!-- Generator: Sketch 39 (31667) - http://www.bohemiancoding.com/sketch -->
    <title>Group 2</title>
    <desc>Created with Sketch.</desc>
    <defs></defs>
    <g id="Page-1" stroke="none" stroke-width="1" fill="none" fill-rule="evenodd">
        <g id="100*100">
            <g id="Group-2">
                <path d="M50,100 C77.6142375,100 100,77.6142375 100,50 C100,22.3857625 77.6142375,0 50,0 C22.3857625,0 0,22.3857625 0,50 C0,77.6142375 22.3857625,100 50,100 Z" id="Oval-6" fill="#FFFFFF"></path>
                <path d="M53.9840165,67.3779445 C51.2568919,67.3779445 49.4390626,66.6654115 48.5389059,65.2403455 C47.6387491,63.8145645 47.184863,61.9051765 47.184863,59.5128976 L47.184863,45.8431397 L62.4159417,45.8431397 L62.4159417,35.827617 L47.184863,35.827617 L47.184863,24 L35,24.8005264 L35,59.6652764 C35,62.2614429 35.2589283,64.6293988 35.7775466,66.7669975 C36.2954032,68.9053115 37.209268,70.7252752 38.5183792,72.2276036 C39.8274904,73.7292167 41.5737336,74.9003172 43.7555856,75.7401904 C45.9374376,76.5800637 48.6927398,77 52.0199689,77 C54.6389529,77 56.8482209,76.7961127 58.6485344,76.3890533 C60.4488479,75.9819937 62.6771547,75.3932242 64.15,74.8330704 L61.6543878,66.1088346 C60.5090106,66.515894 59.4260809,66.8056287 58.0347219,67.034555 C56.6433629,67.2634812 55.2931277,67.3779445 53.9840165,67.3779445 Z" id="logo-path" fill="#383838"></path>
            </g>
        </g>
    </g>
</svg>