<?xml version="1.0" encoding="UTF-8" standalone="no"?>
<svg width="64px" height="64px" viewBox="0 0 64 64" version="1.1" xmlns="http://www.w3.org/2000/svg" xmlns:xlink="http://www.w3.org/1999/xlink">
    <!-- Generator: Sketch 39 (31667) - http://www.bohemiancoding.com/sketch -->
    <title>64*64</title>
    <desc>Created with Sketch.</desc>
    <defs></defs>
    <g id="Page-1" stroke="none" stroke-width="1" fill="none" fill-rule="evenodd">
        <g id="64*64">
            <path d="M32,64 C49.673112,64 64,49.673112 64,32 C64,14.326888 49.673112,0 32,0 C14.326888,0 0,14.326888 0,32 C0,49.673112 14.326888,64 32,64 Z" id="Combined-Shape" fill="#383838"></path>
            <path d="M36.3275596,44.7380713 C34.2693524,44.7380713 32.8974058,44.2003106 32.2180422,43.1247891 C31.5386786,42.0487279 31.196123,40.6076803 31.196123,38.8021869 L31.196123,28.4853885 L42.6912768,28.4853885 L42.6912768,20.9265034 L31.196123,20.9265034 L31.196123,12 L22,12.6041709 L22,38.9171898 C22,40.8765607 22.1954176,42.6636972 22.5868276,44.2769792 C22.9776628,45.8908011 23.6673721,47.2643586 24.6553805,48.3981914 C25.643389,49.5314843 26.9613084,50.4153337 28.6079891,51.0492003 C30.2546699,51.6830669 32.3341432,52 34.8452595,52 C36.8218512,52 38.4892233,51.8461228 39.8479505,51.5389081 C41.2066776,51.2316933 42.8884186,50.787339 44,50.3645814 L42.1165191,43.7802526 C41.2520835,44.0874672 40.4347781,44.3061349 39.3846958,44.4789094 C38.3346135,44.6516839 37.3155681,44.7380713 36.3275596,44.7380713 Z" id="logo-path" fill="#FFFFFF"></path>
        </g>
    </g>
</svg>