<?xml version="1.0" encoding="UTF-8" standalone="no"?>
<svg width="512px" height="512px" viewBox="0 0 512 512" version="1.1" xmlns="http://www.w3.org/2000/svg" xmlns:xlink="http://www.w3.org/1999/xlink">
    <!-- Generator: Sketch 39 (31667) - http://www.bohemiancoding.com/sketch -->
    <title>320*320</title>
    <desc>Created with Sketch.</desc>
    <defs></defs>
    <g id="Page-1" stroke="none" stroke-width="1" fill="none" fill-rule="evenodd">
        <g id="regular">
            <g id="Page-1">
                <g id="320*320">
                    <rect id="Combined-Shape" fill="#383838" x="0" y="0" width="512" height="512" rx="80"></rect>
                    <path d="M300.744573,380.323576 C280.985782,380.323576 267.815096,375.07503 261.293205,364.577941 C254.771314,354.075584 251.482781,340.01096 251.482781,322.389344 L251.482781,221.697392 L361.836258,221.697392 L361.836258,147.922673 L251.482781,147.922673 L251.482781,60.8 L163.2,66.696708 L163.2,323.511773 C163.2,342.635232 165.07601,360.077685 168.833546,375.823317 C172.585563,391.574219 179.206771,404.980141 188.691653,416.046349 C198.176534,427.107286 210.82856,435.733658 226.636696,441.920195 C242.44483,448.106733 262.407774,451.2 286.514491,451.2 C305.489771,451.2 321.496544,449.698158 334.540325,446.699744 C347.584106,443.701326 363.728819,439.364429 374.4,435.238315 L356.318582,370.975266 C348.020002,373.97368 340.173869,376.107877 330.09308,377.794155 C320.01229,379.480435 310.229454,380.323576 300.744573,380.323576 L300.744573,380.323576 Z" id="logo-path" fill="#FFFFFF"></path>
                </g>
            </g>
        </g>
    </g>
</svg>