<?xml version="1.0" encoding="UTF-8" standalone="no"?>
<svg width="100px" height="100px" viewBox="0 0 100 100" version="1.1" xmlns="http://www.w3.org/2000/svg" xmlns:xlink="http://www.w3.org/1999/xlink" style="background: #FFFFFF;">
    <!-- Generator: Sketch 39 (31667) - http://www.bohemiancoding.com/sketch -->
    <title>100*100</title>
    <desc>Created with Sketch.</desc>
    <defs></defs>
    <g id="Page-1" stroke="none" stroke-width="1" fill="none" fill-rule="evenodd">
        <g id="100*100" fill="#383838">
            <g id="Group-2" transform="translate(35.000000, 24.000000)">
                <path d="M18.9840165,43.3779445 C16.2568919,43.3779445 14.4390626,42.6654115 13.5389059,41.2403455 C12.6387491,39.8145645 12.184863,37.9051765 12.184863,35.5128976 L12.184863,21.8431397 L27.4159417,21.8431397 L27.4159417,11.827617 L12.184863,11.827617 L12.184863,0 L0,0.80052644 L0,35.6652764 C0,38.2614429 0.258928338,40.6293988 0.777546568,42.7669975 C1.29540325,44.9053115 2.20926797,46.7252752 3.51837919,48.2276036 C4.82749041,49.7292167 6.57373358,50.9003172 8.7555856,51.7401904 C10.9374376,52.5800637 13.6927398,53 17.0199689,53 C19.6389529,53 21.8482209,52.7961127 23.6485344,52.3890533 C25.4488479,51.9819937 27.6771547,51.3932242 29.15,50.8330704 L26.6543878,42.1088346 C25.5090106,42.515894 24.4260809,42.8056287 23.0347219,43.034555 C21.6433629,43.2634812 20.2931277,43.3779445 18.9840165,43.3779445 Z" id="logo-path"></path>
            </g>
        </g>
    </g>
</svg>