<?xml version="1.0" encoding="UTF-8" standalone="no"?>
<svg width="320px" height="320px" viewBox="0 0 320 320" version="1.1" xmlns="http://www.w3.org/2000/svg" xmlns:xlink="http://www.w3.org/1999/xlink">
    <!-- Generator: Sketch 39 (31667) - http://www.bohemiancoding.com/sketch -->
    <title>320*320</title>
    <desc>Created with Sketch.</desc>
    <defs></defs>
    <g id="Page-1" stroke="none" stroke-width="1" fill="none" fill-rule="evenodd">
        <g id="320*320">
            <rect id="Combined-Shape" fill="#383838" x="0" y="0" width="320" height="320"></rect>
            <path d="M187.965358,237.702235 C175.616114,237.702235 167.384435,234.421894 163.308253,227.861213 C159.232071,221.29724 157.176738,212.50685 157.176738,201.49334 L157.176738,138.56087 L226.147661,138.56087 L226.147661,92.4516706 L157.176738,92.4516706 L157.176738,38 L102,41.6854425 L102,202.194858 C102,214.14702 103.172506,225.048553 105.520966,234.889573 C107.865977,244.733887 112.004232,253.112588 117.932283,260.028968 C123.860334,266.942054 131.76785,272.333536 141.647935,276.200122 C151.528019,280.066708 164.004859,282 179.071557,282 C190.931107,282 200.93534,281.061349 209.087703,279.18734 C217.240066,277.313329 227.330512,274.602768 234,272.023947 L222.699114,231.859541 C217.512501,233.73355 212.608668,235.067423 206.308175,236.121347 C200.007681,237.175272 193.893409,237.702235 187.965358,237.702235 Z" id="logo-path" fill="#FFFFFF"></path>
        </g>
    </g>
</svg>